<svg class="animated" id="freepik_stories-tropical-island" xmlns="http://www.w3.org/2000/svg" viewBox="0 0 750 500" version="1.1" xmlns:xlink="http://www.w3.org/1999/xlink" xmlns:svgjs="http://svgjs.com/svgjs"><style>svg#freepik_stories-tropical-island:not(.animated) .animable {opacity: 0;}svg#freepik_stories-tropical-island.animated #freepik--Trees--inject-39 {animation: 6s Infinite  linear shake;animation-delay: 0s;}svg#freepik_stories-tropical-island.animated #freepik--Plants--inject-39 {animation: 6s Infinite  linear shake;animation-delay: 0s;}            @keyframes shake {                10%, 90% {                    transform: translate3d(-1px, 0, 0);                  }                  20%, 80% {                    transform: translate3d(2px, 0, 0);                  }                  30%, 50%, 70% {                    transform: translate3d(-4px, 0, 0);                  }                  40%, 60% {                    transform: translate3d(4px, 0, 0);                  }            }        </style><g id="freepik--background-complete--inject-39" class="animable" style="transform-origin: 375px 243.825px;"><path d="M673.73,333.61H493a5.87,5.87,0,0,1-5.86-5.86V64.47A5.87,5.87,0,0,1,493,58.61H673.73a5.87,5.87,0,0,1,5.87,5.86V327.75A5.87,5.87,0,0,1,673.73,333.61ZM493,58.86a5.61,5.61,0,0,0-5.61,5.61V327.75a5.61,5.61,0,0,0,5.61,5.61H673.73a5.62,5.62,0,0,0,5.62-5.61V64.47a5.62,5.62,0,0,0-5.62-5.61Z" style="fill: rgb(224, 224, 224); transform-origin: 583.37px 196.11px;" id="el4v7c6vhsjow" class="animable"></path><path d="M465.31,333.61H284.56a5.87,5.87,0,0,1-5.86-5.86V64.47a5.87,5.87,0,0,1,5.86-5.86H465.31a5.87,5.87,0,0,1,5.86,5.86V327.75A5.87,5.87,0,0,1,465.31,333.61ZM284.56,58.86A5.62,5.62,0,0,0,279,64.47V327.75a5.62,5.62,0,0,0,5.61,5.61H465.31a5.62,5.62,0,0,0,5.61-5.61V64.47a5.62,5.62,0,0,0-5.61-5.61Z" style="fill: rgb(224, 224, 224); transform-origin: 374.935px 196.11px;" id="elzircktv30xi" class="animable"></path><path d="M257,333.61H76.27a5.87,5.87,0,0,1-5.87-5.86V64.47a5.87,5.87,0,0,1,5.87-5.86H257a5.87,5.87,0,0,1,5.86,5.86V327.75A5.87,5.87,0,0,1,257,333.61ZM76.27,58.86a5.62,5.62,0,0,0-5.62,5.61V327.75a5.62,5.62,0,0,0,5.62,5.61H257a5.61,5.61,0,0,0,5.61-5.61V64.47A5.61,5.61,0,0,0,257,58.86Z" style="fill: rgb(224, 224, 224); transform-origin: 166.63px 196.11px;" id="ell9pt4l3zmk" class="animable"></path><rect y="394.68" width="750" height="0.12" style="fill: rgb(224, 224, 224); transform-origin: 375px 394.74px;" id="elek2u9qt67v6" class="animable"></rect><rect x="653.63" y="424.06" width="55.73" height="0.42" style="fill: rgb(235, 235, 235); transform-origin: 681.495px 424.27px;" id="elijq34e3tm6" class="animable"></rect><rect x="495.04" y="428.62" width="14.63" height="0.42" style="fill: rgb(235, 235, 235); transform-origin: 502.355px 428.83px;" id="elz8edh9bq8g" class="animable"></rect><rect x="40.64" y="411.26" width="72.67" height="0.42" style="fill: rgb(235, 235, 235); transform-origin: 76.975px 411.47px;" id="elngujpp0qyzm" class="animable"></rect><rect x="128.3" y="411.26" width="10.66" height="0.42" style="fill: rgb(235, 235, 235); transform-origin: 133.63px 411.47px;" id="elzkqnf46su58" class="animable"></rect><rect x="173.59" y="418.36" width="157.61" height="0.42" style="fill: rgb(235, 235, 235); transform-origin: 252.395px 418.57px;" id="elgi7oeyj53x" class="animable"></rect><path d="M281,259.84c-11-10.72-22.11-21.54-35.26-29.45S217,217.63,201.79,220c-19.38,3-35.08,16.9-48.75,30.95A533.82,533.82,0,0,0,70.17,361.79L326.64,304.4Z" style="fill: rgb(224, 224, 224); transform-origin: 198.405px 290.593px;" id="elqjv01u5okys" class="animable"></path><path d="M193.92,191.91a13,13,0,0,0-4-7.55,3.75,3.75,0,0,1-2.37,1.89,7.52,7.52,0,0,0,1.11-3,15.82,15.82,0,0,0-4.89-2.59,48.73,48.73,0,0,0,14.33-2.09c-5.67-4.24-12.43-4.75-16.53-2.34,1.36-1.78,2.64-3.6,3.83-5.5a9.52,9.52,0,0,0-1.5-.42,5,5,0,0,1,1.93-.23l1.4-2.18c-6.57,1.43-11.45,6.51-9.91,10.84-3.6-4.86-12.5-2.72-18.29,3.74l3.26-.17a6.42,6.42,0,0,1,1.44-2,13.74,13.74,0,0,0-.47,1.89c3-.14,6-.42,9-.84-4.68,2.73-7.94,9.72-6.92,17.72a55.55,55.55,0,0,0,11.33-15.38,14.47,14.47,0,0,0,.4,7.68,6.77,6.77,0,0,0,1,.07,6.65,6.65,0,0,1-.85.41,13.91,13.91,0,0,0,1.57,3.07,9.07,9.07,0,0,0,1.63.42,6,6,0,0,1-1.07.32,11,11,0,0,0,2.77,2.46,13.15,13.15,0,0,0,.61-9.59c8,19.52,5.05,48.41,5.05,48.41H194s2-29.23-8.91-48.05A13.7,13.7,0,0,0,193.92,191.91Zm-15.73-11.58Z" style="fill: rgb(224, 224, 224); transform-origin: 178.565px 202.425px;" id="eleghp5k8mazl" class="animable"></path><path d="M273.74,221.22c-12.83,11.44-18.44,33.86-18.44,33.86L260,256.6s4.86-22.38,15.62-35.07a10.34,10.34,0,0,0-1.88,7.34,8.54,8.54,0,0,0,2.68-1.17,4.49,4.49,0,0,1-.73-.5,5.86,5.86,0,0,0,1.32.08,10.32,10.32,0,0,0,1.93-1.92,3.64,3.64,0,0,1-.53-.51,5.12,5.12,0,0,0,.77.2,11.41,11.41,0,0,0,2.18-5.67,43.72,43.72,0,0,0,4.74,14.31c2.72-5.75,2-11.79-.86-15q3.19,1.56,6.52,2.82a11.25,11.25,0,0,0,.11-1.53,5,5,0,0,1,.6,1.84l2.4.92c-2.77-6.26-8.91-10-12.81-7.28,2.22-2.87-.19-7.87-4.77-10.55q.25,1,.51,2a4,4,0,0,1,1.39.64,8.44,8.44,0,0,0-1.23-.05c.43,1.71.95,3.4,1.53,5.06-2.48-2.81-7.68-4.07-13-2.29a38.4,38.4,0,0,0,10.24,5.08,12.34,12.34,0,0,0-4.3.75,5.91,5.91,0,0,0,.1,2.51,3,3,0,0,1-1.32-2,10.22,10.22,0,0,0-4.86,4.68A10.78,10.78,0,0,0,273.74,221.22Zm7.25-4.77h0Z" style="fill: rgb(224, 224, 224); transform-origin: 275.085px 230.755px;" id="el4z7pr9stmk8" class="animable"></path><path d="M438.83,250.93c11-10.72,22.1-21.53,35.26-29.45s28.73-12.76,43.9-10.43c19.37,3,35.07,16.91,48.75,30.95A534.3,534.3,0,0,1,649.6,352.88L393.14,295.5Z" style="fill: rgb(224, 224, 224); transform-origin: 521.37px 281.672px;" id="elh4kt47g9ch7" class="animable"></path><path d="M526.1,185c-11,18.83-8.91,48-8.91,48h6.22s-2.94-28.88,5.05-48.41a13.2,13.2,0,0,0,.61,9.59,11.07,11.07,0,0,0,2.78-2.46,5.51,5.51,0,0,1-1.07-.32,7.57,7.57,0,0,0,1.62-.42,13.69,13.69,0,0,0,1.57-3.07,6,6,0,0,1-.85-.41,5.83,5.83,0,0,0,1-.07,14.57,14.57,0,0,0,.39-7.68,55.29,55.29,0,0,0,11.34,15.38c1-8-2.25-15-6.93-17.72,3,.42,6,.71,9,.84a13.22,13.22,0,0,0-.46-1.88,6.5,6.5,0,0,1,1.44,2l3.26.18c-5.8-6.47-14.69-8.6-18.3-3.75,1.55-4.33-3.33-9.41-9.9-10.84.47.76.94,1.49,1.39,2.18a5.23,5.23,0,0,1,1.93.23,8.84,8.84,0,0,0-1.5.43c1.19,1.89,2.48,3.72,3.84,5.49-4.1-2.41-10.86-1.89-16.54,2.34a48.47,48.47,0,0,0,14.34,2.09,15.74,15.74,0,0,0-4.89,2.6,7.53,7.53,0,0,0,1.11,3,3.74,3.74,0,0,1-2.38-1.89,12.94,12.94,0,0,0-4,7.55A13.67,13.67,0,0,0,526.1,185Zm6.87-8.6h0Z" style="fill: rgb(224, 224, 224); transform-origin: 532.62px 198.48px;" id="elfcxevgyb2ci" class="animable"></path><path d="M471.62,207.08a10.22,10.22,0,0,0-4.86-4.68,2.93,2.93,0,0,1-1.31,2,6,6,0,0,0,.09-2.52,12.53,12.53,0,0,0-4.3-.75,38.23,38.23,0,0,0,10.24-5.07c-5.29-1.79-10.48-.52-13,2.29.59-1.67,1.1-3.35,1.53-5.06a8.43,8.43,0,0,0-1.23,0,4.24,4.24,0,0,1,1.4-.64c.16-.63.34-1.29.51-2-4.58,2.68-7,7.69-4.78,10.56-3.89-2.76-10,1-12.8,7.28l2.4-.93a5.11,5.11,0,0,1,.59-1.83,9.86,9.86,0,0,0,.12,1.53c2.21-.84,4.39-1.79,6.52-2.83-2.84,3.19-3.58,9.23-.86,15a43.67,43.67,0,0,0,4.74-14.3,11.45,11.45,0,0,0,2.17,5.66,4.94,4.94,0,0,0,.78-.19,6.51,6.51,0,0,1-.54.51,11,11,0,0,0,1.93,1.92,6.46,6.46,0,0,0,1.32-.08,5.14,5.14,0,0,1-.72.5,8.52,8.52,0,0,0,2.68,1.16,10.42,10.42,0,0,0-1.89-7.34C473.15,220,478,242.39,478,242.39l4.66-1.52s-5.6-22.42-18.43-33.86A10.81,10.81,0,0,0,471.62,207.08ZM457,202.24Z" style="fill: rgb(224, 224, 224); transform-origin: 462.885px 216.52px;" id="elgzr73rvnfwl" class="animable"></path><path d="M499.31,168.72a5.51,5.51,0,0,0-5.95-.35,10.6,10.6,0,0,0-13.94-4.46,12,12,0,0,0-23.43.28,4.67,4.67,0,0,1-.9,2.38c-1,1-2.61.66-4,.55a9.88,9.88,0,0,0-10,7l60.24-.22A4.81,4.81,0,0,0,499.31,168.72Z" style="fill: rgb(230, 230, 230); transform-origin: 471.281px 164.383px;" id="elwq8rgwtgle" class="animable"></path><path d="M417.21,95.81a7.72,7.72,0,0,0-8.34-.49c-3.39-6.84-12.82-9.86-19.55-6.26a16.85,16.85,0,0,0-32.87.4,6.48,6.48,0,0,1-1.26,3.33c-1.37,1.4-3.65.93-5.6.78a13.86,13.86,0,0,0-14,9.75l84.5-.31C420.85,100.15,419.57,97.59,417.21,95.81Z" style="fill: rgb(224, 224, 224); transform-origin: 377.95px 89.7205px;" id="elizb6fjwl9h" class="animable"></path><path d="M638.69,84.5a5.35,5.35,0,0,0-5.8-.34,10.32,10.32,0,0,0-13.59-4.35,11.71,11.71,0,0,0-22.85.27,4.53,4.53,0,0,1-.88,2.32c-1,1-2.54.64-3.9.54A9.63,9.63,0,0,0,582,89.72l58.75-.22A4.69,4.69,0,0,0,638.69,84.5Z" style="fill: rgb(235, 235, 235); transform-origin: 611.433px 80.2595px;" id="elm6x7ebj9fvm" class="animable"></path><path d="M186.07,83a3.39,3.39,0,0,0-3.68-.22A6.57,6.57,0,0,0,173.77,80a7.43,7.43,0,0,0-14.49.18,2.87,2.87,0,0,1-.56,1.47c-.6.61-1.61.41-2.47.34a6.12,6.12,0,0,0-6.16,4.3l37.25-.14A3,3,0,0,0,186.07,83Z" style="fill: rgb(235, 235, 235); transform-origin: 168.751px 80.2975px;" id="elslho75s6sq" class="animable"></path><path d="M153.22,114.45a5.36,5.36,0,0,0-5.8-.34,10.33,10.33,0,0,0-13.59-4.35A11.72,11.72,0,0,0,111,110a4.52,4.52,0,0,1-.87,2.32c-1,1-2.54.64-3.9.54a9.64,9.64,0,0,0-9.72,6.78l58.75-.21A4.68,4.68,0,0,0,153.22,114.45Z" style="fill: rgb(224, 224, 224); transform-origin: 125.943px 110.227px;" id="elaz50t0ea94d" class="animable"></path></g><g id="freepik--Shadow--inject-39" class="animable" style="transform-origin: 375px 458.15px;"><path d="M637.6,458.17c0,3.38-117.57,6.13-262.6,6.13s-262.6-2.75-262.6-6.13S230,452,375,452,637.6,454.78,637.6,458.17Z" style="fill: rgb(245, 245, 245); transform-origin: 375px 458.15px;" id="elbnlbp5dqxp" class="animable"></path></g><g id="freepik--Water--inject-39" class="animable" style="transform-origin: 374.34px 416.087px;"><path d="M42.34,385.71c8.8,10.24,24.2,16.44,40,19.11s32.19,2.23,48.38,1.78L257.4,403c6.59-.18,13.44-.33,19.47,1.67s10.95,6.84,9.64,11.7c-1,3.84-5.56,6.75-6.47,10.61-1.92,8.18,12,12.73,22.95,14,87.11,9.92,176,5,263.36-3.83,26.66-2.7,53.55-5.82,78.52-13.37s48.18-20,61.47-37.62Z" style="fill: rgb(64, 123, 255); transform-origin: 374.34px 416.087px;" id="els6nubrejs1b" class="animable"></path><g id="elg0z965kwxpl"><g style="opacity: 0.8; transform-origin: 374.34px 416.087px;" class="animable"><path d="M42.34,385.71c8.8,10.24,24.2,16.44,40,19.11s32.19,2.23,48.38,1.78L257.4,403c6.59-.18,13.44-.33,19.47,1.67s10.95,6.84,9.64,11.7c-1,3.84-5.56,6.75-6.47,10.61-1.92,8.18,12,12.73,22.95,14,87.11,9.92,176,5,263.36-3.83,26.66-2.7,53.55-5.82,78.52-13.37s48.18-20,61.47-37.62Z" style="fill: rgb(255, 255, 255); transform-origin: 374.34px 416.087px;" id="elmmunpm80kl" class="animable"></path></g></g><path d="M370,413.59h-32.4a.25.25,0,0,1,0-.5H370a.25.25,0,0,1,0,.5Z" style="fill: rgb(64, 123, 255); transform-origin: 353.8px 413.34px;" id="elbqx0hpevydm" class="animable"></path><path d="M392,408.76h-32.4a.25.25,0,0,1-.25-.25.25.25,0,0,1,.25-.25H392a.25.25,0,0,1,.25.25A.25.25,0,0,1,392,408.76Z" style="fill: rgb(64, 123, 255); transform-origin: 375.8px 408.51px;" id="el6sru5793ptp" class="animable"></path><path d="M378,420.44H362.33a.25.25,0,0,1,0-.5H378a.25.25,0,0,1,0,.5Z" style="fill: rgb(64, 123, 255); transform-origin: 370.165px 420.19px;" id="el2f5ivu8t1tl" class="animable"></path><path d="M503.73,409.49h-32.4a.25.25,0,0,1-.25-.25.25.25,0,0,1,.25-.25h32.4a.25.25,0,0,1,.25.25A.26.26,0,0,1,503.73,409.49Z" style="fill: rgb(64, 123, 255); transform-origin: 487.53px 409.24px;" id="el8de2km3ug2v" class="animable"></path><path d="M525.73,404.66h-83.6a.25.25,0,0,1,0-.5h83.6a.25.25,0,0,1,0,.5Z" style="fill: rgb(64, 123, 255); transform-origin: 483.93px 404.41px;" id="elqqlfrozeski" class="animable"></path><path d="M511.65,416.34H496a.26.26,0,0,1-.25-.25.25.25,0,0,1,.25-.25h15.63a.25.25,0,0,1,.25.25A.25.25,0,0,1,511.65,416.34Z" style="fill: rgb(64, 123, 255); transform-origin: 503.815px 416.09px;" id="elio2vlkvmrvr" class="animable"></path><path d="M511.47,400.15H495.84a.25.25,0,0,1-.25-.25.25.25,0,0,1,.25-.25h15.63a.26.26,0,0,1,.25.25A.25.25,0,0,1,511.47,400.15Z" style="fill: rgb(64, 123, 255); transform-origin: 503.655px 399.9px;" id="elejskim5mrrt" class="animable"></path><ellipse cx="204.23" cy="428.29" rx="40.2" ry="10.19" style="fill: rgb(64, 123, 255); transform-origin: 204.23px 428.29px;" id="elx71pnau1j4a" class="animable"></ellipse><g id="ele690mutiwq"><ellipse cx="204.23" cy="428.29" rx="40.2" ry="10.19" style="fill: rgb(255, 255, 255); opacity: 0.8; transform-origin: 204.23px 428.29px;" class="animable"></ellipse></g></g><g id="freepik--Sun--inject-39" class="animable" style="transform-origin: 493.9px 108.665px;"><g id="freepik--freepik--Sun--inject-5--inject-39" class="animable" style="transform-origin: 493.9px 108.665px;"><path d="M529.26,108.63c0,3-4.33,5.36-5.07,8.12s1.77,7.07.34,9.56-6.4,2.44-8.46,4.49-2,7-4.49,8.45-6.71-1.09-9.56-.33S496.88,144,493.9,144s-5.37-4.32-8.12-5.06-7.06,1.78-9.56.33-2.44-6.4-4.49-8.45-7-2-8.45-4.49,1.08-6.74.33-9.58-5.07-5.13-5.07-8.12,4.33-5.36,5.07-8.12-1.77-7.07-.33-9.56,6.39-2.44,8.45-4.49,2-7,4.49-8.46,6.71,1.1,9.56.33,5.14-5,8.12-5,5.37,4.32,8.12,5,7.07-1.77,9.56-.33,2.44,6.4,4.49,8.46,7,2,8.46,4.49-1.09,6.71-.34,9.56S529.26,105.64,529.26,108.63Z" style="fill: rgb(64, 123, 255); transform-origin: 493.9px 108.665px;" id="elbb2wlzhrmhl" class="animable"></path><g id="elbrmowv8uk54"><circle cx="493.9" cy="108.62" r="25.27" style="fill: rgb(64, 123, 255); transform-origin: 493.9px 108.62px; transform: rotate(-17.44deg);" class="animable"></circle></g><path d="M529.26,108.63c0,3-4.33,5.36-5.07,8.12s1.77,7.07.34,9.56-6.4,2.44-8.46,4.49-2,7-4.49,8.45-6.71-1.09-9.56-.33S496.88,144,493.9,144s-5.37-4.32-8.12-5.06-7.06,1.78-9.56.33-2.44-6.4-4.49-8.45-7-2-8.45-4.49,1.08-6.74.33-9.58-5.07-5.13-5.07-8.12,4.33-5.36,5.07-8.12-1.77-7.07-.33-9.56,6.39-2.44,8.45-4.49,2-7,4.49-8.46,6.71,1.1,9.56.33,5.14-5,8.12-5,5.37,4.32,8.12,5,7.07-1.77,9.56-.33,2.44,6.4,4.49,8.46,7,2,8.46,4.49-1.09,6.71-.34,9.56S529.26,105.64,529.26,108.63Z" style="fill: rgb(255, 255, 255); transform-origin: 493.9px 108.665px;" id="elqc5zazz9h3" class="animable"></path></g></g><g id="freepik--Island--inject-39" class="animable animator-active" style="transform-origin: 372.805px 279.23px;"><path d="M99.85,315.77a7.22,7.22,0,0,0-2.23-4.19,2.08,2.08,0,0,1-1.32,1.05,4,4,0,0,0,.62-1.66,8.88,8.88,0,0,0-2.71-1.44,26.78,26.78,0,0,0,7.94-1.16C99,306,95.26,305.74,93,307.07c.75-1,1.46-2,2.12-3a5.67,5.67,0,0,0-.83-.24,2.78,2.78,0,0,1,1.07-.12l.78-1.21c-3.65.79-6.35,3.61-5.49,6-2-2.69-6.93-1.51-10.14,2.07l1.8-.1a3.75,3.75,0,0,1,.8-1.09,7.32,7.32,0,0,0-.26,1c1.67-.08,3.33-.24,5-.47-2.59,1.51-4.4,5.39-3.83,9.82a30.94,30.94,0,0,0,6.28-8.52,8.06,8.06,0,0,0,.22,4.25,3.43,3.43,0,0,0,.56,0,4.09,4.09,0,0,1-.47.23,7.8,7.8,0,0,0,.87,1.7,4,4,0,0,0,.9.23,3.09,3.09,0,0,1-.59.18,6,6,0,0,0,1.53,1.36,7.21,7.21,0,0,0,.34-5.31c4.43,10.82,2.8,26.83,2.8,26.83h3.45s1.14-16.2-4.94-26.63A7.63,7.63,0,0,0,99.85,315.77Zm-8.72-6.42Z" style="fill: rgb(64, 123, 255); transform-origin: 91.33px 321.59px;" id="elottpecow57" class="animable"></path><g id="elfiib2f19dxa"><path d="M99.85,315.77a7.22,7.22,0,0,0-2.23-4.19,2.08,2.08,0,0,1-1.32,1.05,4,4,0,0,0,.62-1.66,8.88,8.88,0,0,0-2.71-1.44,26.78,26.78,0,0,0,7.94-1.16C99,306,95.26,305.74,93,307.07c.75-1,1.46-2,2.12-3a5.67,5.67,0,0,0-.83-.24,2.78,2.78,0,0,1,1.07-.12l.78-1.21c-3.65.79-6.35,3.61-5.49,6-2-2.69-6.93-1.51-10.14,2.07l1.8-.1a3.75,3.75,0,0,1,.8-1.09,7.32,7.32,0,0,0-.26,1c1.67-.08,3.33-.24,5-.47-2.59,1.51-4.4,5.39-3.83,9.82a30.94,30.94,0,0,0,6.28-8.52,8.06,8.06,0,0,0,.22,4.25,3.43,3.43,0,0,0,.56,0,4.09,4.09,0,0,1-.47.23,7.8,7.8,0,0,0,.87,1.7,4,4,0,0,0,.9.23,3.09,3.09,0,0,1-.59.18,6,6,0,0,0,1.53,1.36,7.21,7.21,0,0,0,.34-5.31c4.43,10.82,2.8,26.83,2.8,26.83h3.45s1.14-16.2-4.94-26.63A7.63,7.63,0,0,0,99.85,315.77Zm-8.72-6.42Z" style="opacity: 0.3; transform-origin: 91.33px 321.59px;" class="animable"></path></g><path d="M111.73,294.58a9.73,9.73,0,0,0-3-5.64,2.8,2.8,0,0,1-1.78,1.41,5.48,5.48,0,0,0,.83-2.24,11.72,11.72,0,0,0-3.65-1.94,36.47,36.47,0,0,0,10.72-1.57c-4.25-3.16-9.3-3.55-12.37-1.74q1.53-2,2.87-4.11a6.47,6.47,0,0,0-1.12-.32,3.68,3.68,0,0,1,1.44-.17c.34-.52.69-1.07,1-1.64-4.91,1.07-8.56,4.87-7.4,8.11-2.7-3.63-9.35-2-13.69,2.81l2.44-.14a4.86,4.86,0,0,1,1.08-1.47,9.68,9.68,0,0,0-.35,1.41q3.36-.16,6.71-.63c-3.5,2-5.94,7.27-5.18,13.25a41.3,41.3,0,0,0,8.48-11.5,10.87,10.87,0,0,0,.29,5.74,3.89,3.89,0,0,0,.76.05,4.73,4.73,0,0,1-.64.31,10.64,10.64,0,0,0,1.18,2.3,6.24,6.24,0,0,0,1.22.31,3.86,3.86,0,0,1-.8.24,8.08,8.08,0,0,0,2.07,1.84,9.87,9.87,0,0,0,.46-7.17c6,14.6,3.77,36.21,3.77,36.21h4.66s1.53-21.86-6.67-35.94A10.25,10.25,0,0,0,111.73,294.58ZM100,285.92Z" style="fill: rgb(64, 123, 255); transform-origin: 100.215px 302.455px;" id="elxzbkef4oo7a" class="animable"></path><g id="el1zs81j9drxv"><path d="M111.73,294.58a9.73,9.73,0,0,0-3-5.64,2.8,2.8,0,0,1-1.78,1.41,5.48,5.48,0,0,0,.83-2.24,11.72,11.72,0,0,0-3.65-1.94,36.47,36.47,0,0,0,10.72-1.57c-4.25-3.16-9.3-3.55-12.37-1.74q1.53-2,2.87-4.11a6.47,6.47,0,0,0-1.12-.32,3.68,3.68,0,0,1,1.44-.17c.34-.52.69-1.07,1-1.64-4.91,1.07-8.56,4.87-7.4,8.11-2.7-3.63-9.35-2-13.69,2.81l2.44-.14a4.86,4.86,0,0,1,1.08-1.47,9.68,9.68,0,0,0-.35,1.41q3.36-.16,6.71-.63c-3.5,2-5.94,7.27-5.18,13.25a41.3,41.3,0,0,0,8.48-11.5,10.87,10.87,0,0,0,.29,5.74,3.89,3.89,0,0,0,.76.05,4.73,4.73,0,0,1-.64.31,10.64,10.64,0,0,0,1.18,2.3,6.24,6.24,0,0,0,1.22.31,3.86,3.86,0,0,1-.8.24,8.08,8.08,0,0,0,2.07,1.84,9.87,9.87,0,0,0,.46-7.17c6,14.6,3.77,36.21,3.77,36.21h4.66s1.53-21.86-6.67-35.94A10.25,10.25,0,0,0,111.73,294.58ZM100,285.92Z" style="opacity: 0.3; transform-origin: 100.215px 302.455px;" class="animable"></path></g><path d="M79.49,329.25A7.26,7.26,0,0,0,77.22,325a2.08,2.08,0,0,1-1.34,1.06,4.08,4.08,0,0,0,.63-1.69,8.86,8.86,0,0,0-2.76-1.46,27.41,27.41,0,0,0,8.09-1.18c-3.2-2.38-7-2.67-9.33-1.32.77-1,1.49-2,2.17-3.09a4.31,4.31,0,0,0-.85-.24,2.68,2.68,0,0,1,1.09-.13l.78-1.23c-3.7.8-6.45,3.67-5.58,6.11-2-2.74-7.05-1.53-10.32,2.11l1.84-.1a3.57,3.57,0,0,1,.81-1.11,7.8,7.8,0,0,0-.26,1.06c1.69-.08,3.38-.24,5.06-.47-2.64,1.54-4.48,5.48-3.91,10a31.3,31.3,0,0,0,6.4-8.67A8.15,8.15,0,0,0,70,329a3.64,3.64,0,0,0,.57,0,3.54,3.54,0,0,1-.48.23,7.66,7.66,0,0,0,.89,1.73,4.69,4.69,0,0,0,.91.24,3,3,0,0,1-.6.18,6.42,6.42,0,0,0,1.56,1.38,7.42,7.42,0,0,0,.35-5.41c4.5,11,2.85,27.3,2.85,27.3h3.5s1.16-16.48-5-27.09A7.74,7.74,0,0,0,79.49,329.25Zm-8.87-6.53Z" style="fill: rgb(64, 123, 255); transform-origin: 70.82px 335.185px;" id="el1xm0cbi5hrv" class="animable"></path><g id="els12w5l1v8pf"><path d="M79.49,329.25A7.26,7.26,0,0,0,77.22,325a2.08,2.08,0,0,1-1.34,1.06,4.08,4.08,0,0,0,.63-1.69,8.86,8.86,0,0,0-2.76-1.46,27.41,27.41,0,0,0,8.09-1.18c-3.2-2.38-7-2.67-9.33-1.32.77-1,1.49-2,2.17-3.09a4.31,4.31,0,0,0-.85-.24,2.68,2.68,0,0,1,1.09-.13l.78-1.23c-3.7.8-6.45,3.67-5.58,6.11-2-2.74-7.05-1.53-10.32,2.11l1.84-.1a3.57,3.57,0,0,1,.81-1.11,7.8,7.8,0,0,0-.26,1.06c1.69-.08,3.38-.24,5.06-.47-2.64,1.54-4.48,5.48-3.91,10a31.3,31.3,0,0,0,6.4-8.67A8.15,8.15,0,0,0,70,329a3.64,3.64,0,0,0,.57,0,3.54,3.54,0,0,1-.48.23,7.66,7.66,0,0,0,.89,1.73,4.69,4.69,0,0,0,.91.24,3,3,0,0,1-.6.18,6.42,6.42,0,0,0,1.56,1.38,7.42,7.42,0,0,0,.35-5.41c4.5,11,2.85,27.3,2.85,27.3h3.5s1.16-16.48-5-27.09A7.74,7.74,0,0,0,79.49,329.25Zm-8.87-6.53Z" style="opacity: 0.3; transform-origin: 70.82px 335.185px;" class="animable"></path></g><path d="M172.89,306.76c-20-20.52-34.82-26.26-59.26,4-23.25,28.77-66.29,75-66.29,75H250.43S192.85,327.29,172.89,306.76Z" style="fill: rgb(64, 123, 255); transform-origin: 148.885px 337.736px;" id="el8euk9rrms7" class="animable"></path><g id="elj0wy98xfhgo"><path d="M172.89,306.76c-20-20.52-34.82-26.26-59.26,4-23.25,28.77-66.29,75-66.29,75H250.43S192.85,327.29,172.89,306.76Z" style="opacity: 0.3; transform-origin: 148.885px 337.736px;" class="animable"></path></g><path d="M556,295.72a6.11,6.11,0,0,0-1.89-3.55,1.79,1.79,0,0,1-1.12.89,3.44,3.44,0,0,0,.52-1.41,7.44,7.44,0,0,0-2.3-1.23,22.74,22.74,0,0,0,6.75-1c-2.67-2-5.85-2.23-7.78-1.1.64-.84,1.24-1.7,1.8-2.59a5.29,5.29,0,0,0-.71-.2,2.36,2.36,0,0,1,.91-.1c.22-.33.44-.68.66-1-3.09.67-5.39,3.06-4.66,5.1-1.7-2.28-5.88-1.28-8.61,1.76l1.53-.08a3.28,3.28,0,0,1,.68-.93,6.8,6.8,0,0,0-.22.89c1.41-.06,2.82-.2,4.22-.4-2.2,1.29-3.74,4.58-3.26,8.34a26,26,0,0,0,5.34-7.23,6.78,6.78,0,0,0,.18,3.61,2.58,2.58,0,0,0,.48,0,3,3,0,0,1-.4.2,7,7,0,0,0,.74,1.44,4,4,0,0,0,.77.2,3.28,3.28,0,0,1-.51.15,5.18,5.18,0,0,0,1.31,1.16,6.23,6.23,0,0,0,.29-4.52c3.76,9.19,2.37,22.79,2.37,22.79H556s1-13.76-4.19-22.62A6.4,6.4,0,0,0,556,295.72Zm-7.4-5.45Z" style="fill: rgb(64, 123, 255); transform-origin: 548.765px 300.67px;" id="elodtbc8u45nc" class="animable"></path><g id="elni8rhkqzhm"><path d="M556,295.72a6.11,6.11,0,0,0-1.89-3.55,1.79,1.79,0,0,1-1.12.89,3.44,3.44,0,0,0,.52-1.41,7.44,7.44,0,0,0-2.3-1.23,22.74,22.74,0,0,0,6.75-1c-2.67-2-5.85-2.23-7.78-1.1.64-.84,1.24-1.7,1.8-2.59a5.29,5.29,0,0,0-.71-.2,2.36,2.36,0,0,1,.91-.1c.22-.33.44-.68.66-1-3.09.67-5.39,3.06-4.66,5.1-1.7-2.28-5.88-1.28-8.61,1.76l1.53-.08a3.28,3.28,0,0,1,.68-.93,6.8,6.8,0,0,0-.22.89c1.41-.06,2.82-.2,4.22-.4-2.2,1.29-3.74,4.58-3.26,8.34a26,26,0,0,0,5.34-7.23,6.78,6.78,0,0,0,.18,3.61,2.58,2.58,0,0,0,.48,0,3,3,0,0,1-.4.2,7,7,0,0,0,.74,1.44,4,4,0,0,0,.77.2,3.28,3.28,0,0,1-.51.15,5.18,5.18,0,0,0,1.31,1.16,6.23,6.23,0,0,0,.29-4.52c3.76,9.19,2.37,22.79,2.37,22.79H556s1-13.76-4.19-22.62A6.4,6.4,0,0,0,556,295.72Zm-7.4-5.45Z" style="opacity: 0.3; transform-origin: 548.765px 300.67px;" class="animable"></path></g><path d="M670.61,338.55c-5.18,8.85-4.24,22.61-4.24,22.61h2.93s-1.36-13.6,2.42-22.79a6.17,6.17,0,0,0,.28,4.52,5.14,5.14,0,0,0,1.3-1.16,2.21,2.21,0,0,1-.5-.15,3.27,3.27,0,0,0,.76-.2,6.36,6.36,0,0,0,.75-1.44,2.93,2.93,0,0,1-.4-.19,3.59,3.59,0,0,0,.47,0,6.82,6.82,0,0,0,.2-3.62,26,26,0,0,0,5.32,7.25c.49-3.76-1-7.06-3.24-8.35,1.4.2,2.8.34,4.22.41a6.8,6.8,0,0,0-.22-.89,3.14,3.14,0,0,1,.68.93l1.53.09c-2.72-3.05-6.91-4.06-8.61-1.78.73-2-1.56-4.43-4.65-5.11l.65,1a2.53,2.53,0,0,1,.91.11,5.75,5.75,0,0,0-.71.2c.56.89,1.17,1.76,1.8,2.59-1.92-1.14-5.1-.9-7.78,1.09a23,23,0,0,0,6.75,1,7.43,7.43,0,0,0-2.31,1.21,3.54,3.54,0,0,0,.52,1.41,1.74,1.74,0,0,1-1.11-.89,6.09,6.09,0,0,0-1.9,3.55A6.38,6.38,0,0,0,670.61,338.55Zm3.23-4Z" style="fill: rgb(64, 123, 255); transform-origin: 673.675px 344.92px;" id="elq04i5js451" class="animable"></path><g id="els8q7xa4v2uj"><path d="M670.61,338.55c-5.18,8.85-4.24,22.61-4.24,22.61h2.93s-1.36-13.6,2.42-22.79a6.17,6.17,0,0,0,.28,4.52,5.14,5.14,0,0,0,1.3-1.16,2.21,2.21,0,0,1-.5-.15,3.27,3.27,0,0,0,.76-.2,6.36,6.36,0,0,0,.75-1.44,2.93,2.93,0,0,1-.4-.19,3.59,3.59,0,0,0,.47,0,6.82,6.82,0,0,0,.2-3.62,26,26,0,0,0,5.32,7.25c.49-3.76-1-7.06-3.24-8.35,1.4.2,2.8.34,4.22.41a6.8,6.8,0,0,0-.22-.89,3.14,3.14,0,0,1,.68.93l1.53.09c-2.72-3.05-6.91-4.06-8.61-1.78.73-2-1.56-4.43-4.65-5.11l.65,1a2.53,2.53,0,0,1,.91.11,5.75,5.75,0,0,0-.71.2c.56.89,1.17,1.76,1.8,2.59-1.92-1.14-5.1-.9-7.78,1.09a23,23,0,0,0,6.75,1,7.43,7.43,0,0,0-2.31,1.21,3.54,3.54,0,0,0,.52,1.41,1.74,1.74,0,0,1-1.11-.89,6.09,6.09,0,0,0-1.9,3.55A6.38,6.38,0,0,0,670.61,338.55Zm3.23-4Z" style="opacity: 0.3; transform-origin: 673.675px 344.92px;" class="animable"></path></g><path d="M662,320.06c-7,11.94-5.72,30.51-5.72,30.51h4s-1.84-18.35,3.26-30.75a8.31,8.31,0,0,0,.38,6.09,6.72,6.72,0,0,0,1.76-1.56,3.31,3.31,0,0,1-.68-.2,4.6,4.6,0,0,0,1-.27,9,9,0,0,0,1-1.94,3.4,3.4,0,0,1-.54-.27,3.44,3.44,0,0,0,.64,0,9.26,9.26,0,0,0,.26-4.87,35.35,35.35,0,0,0,7.18,9.78c.66-5.08-1.41-9.53-4.38-11.27,1.89.27,3.79.46,5.7.55a9.54,9.54,0,0,0-.29-1.2,4,4,0,0,1,.91,1.25l2.07.12c-3.67-4.11-9.32-5.48-11.62-2.4,1-2.75-2.1-6-6.28-6.9.31.48.6.95.89,1.39a3.15,3.15,0,0,1,1.22.15,5.39,5.39,0,0,0-.95.27c.75,1.2,1.57,2.36,2.43,3.49-2.6-1.53-6.9-1.22-10.51,1.47a31,31,0,0,0,9.11,1.34,10.13,10.13,0,0,0-3.11,1.64,4.7,4.7,0,0,0,.7,1.91,2.4,2.4,0,0,1-1.51-1.2,8.25,8.25,0,0,0-2.56,4.79A8.72,8.72,0,0,0,662,320.06Zm4.37-5.46h0Z" style="fill: rgb(64, 123, 255); transform-origin: 666.14px 328.65px;" id="elovi7xqvycqc" class="animable"></path><g id="el3o2ixdv5l8f"><path d="M662,320.06c-7,11.94-5.72,30.51-5.72,30.51h4s-1.84-18.35,3.26-30.75a8.31,8.31,0,0,0,.38,6.09,6.72,6.72,0,0,0,1.76-1.56,3.31,3.31,0,0,1-.68-.2,4.6,4.6,0,0,0,1-.27,9,9,0,0,0,1-1.94,3.4,3.4,0,0,1-.54-.27,3.44,3.44,0,0,0,.64,0,9.26,9.26,0,0,0,.26-4.87,35.35,35.35,0,0,0,7.18,9.78c.66-5.08-1.41-9.53-4.38-11.27,1.89.27,3.79.46,5.7.55a9.54,9.54,0,0,0-.29-1.2,4,4,0,0,1,.91,1.25l2.07.12c-3.67-4.11-9.32-5.48-11.62-2.4,1-2.75-2.1-6-6.28-6.9.31.48.6.95.89,1.39a3.15,3.15,0,0,1,1.22.15,5.39,5.39,0,0,0-.95.27c.75,1.2,1.57,2.36,2.43,3.49-2.6-1.53-6.9-1.22-10.51,1.47a31,31,0,0,0,9.11,1.34,10.13,10.13,0,0,0-3.11,1.64,4.7,4.7,0,0,0,.7,1.91,2.4,2.4,0,0,1-1.51-1.2,8.25,8.25,0,0,0-2.56,4.79A8.72,8.72,0,0,0,662,320.06Zm4.37-5.46h0Z" style="opacity: 0.3; transform-origin: 666.14px 328.65px;" class="animable"></path></g><path d="M562.17,304.36c22.59-23.15,42.55-37.43,70.1-3.25,26.22,32.51,66,84.91,66,84.91l-229.51-.41S539.58,327.51,562.17,304.36Z" style="fill: rgb(64, 123, 255); transform-origin: 583.515px 333.385px;" id="el8nd1ug52rht" class="animable"></path><g id="elcb34ykzu0i9"><path d="M562.17,304.36c22.59-23.15,42.55-37.43,70.1-3.25,26.22,32.51,66,84.91,66,84.91l-229.51-.41S539.58,327.51,562.17,304.36Z" style="opacity: 0.3; transform-origin: 583.515px 333.385px;" class="animable"></path></g><path d="M194.38,309.77c33.88-24.08,49.56-47.68,90.74-12.95,18.54-10.73,34.82-21.47,46.67-31.6,64.16-54.8,128.68-21.07,181.06,16.16s113,104.35,113,104.35H80.5S160.3,334,194.38,309.77Z" style="fill: rgb(64, 123, 255); transform-origin: 353.175px 311.081px;" id="el2jrc7yplo6t" class="animable"></path><path d="M306.66,270.19a12.93,12.93,0,0,0-4-7.57,3.74,3.74,0,0,1-2.38,1.89,7.37,7.37,0,0,0,1.11-3,15.82,15.82,0,0,0-4.9-2.61,48.73,48.73,0,0,0,14.38-2.09c-5.69-4.25-12.47-4.77-16.58-2.35,1.36-1.78,2.65-3.61,3.84-5.51a9.66,9.66,0,0,0-1.51-.43,5.33,5.33,0,0,1,1.94-.23c.46-.7.92-1.43,1.4-2.18-6.59,1.43-11.48,6.53-9.93,10.87-3.62-4.87-12.54-2.73-18.35,3.76l3.26-.18a6.29,6.29,0,0,1,1.45-2,13.74,13.74,0,0,0-.47,1.89c3-.14,6-.42,9-.84-4.69,2.73-8,9.75-6.95,17.77A55.56,55.56,0,0,0,289.32,262a14.44,14.44,0,0,0,.39,7.7,7,7,0,0,0,1,.07,6.78,6.78,0,0,1-.86.41,14.23,14.23,0,0,0,1.58,3.08,8.31,8.31,0,0,0,1.63.42A6,6,0,0,1,292,274a10.92,10.92,0,0,0,2.78,2.47,13.18,13.18,0,0,0,.61-9.62c8,19.59,5.07,48.56,5.07,48.56h6.24s2.06-29.32-8.94-48.2A13.7,13.7,0,0,0,306.66,270.19Zm-15.77-11.62Z" style="fill: rgb(64, 123, 255); transform-origin: 291.275px 280.76px;" id="eluomh6oe859q" class="animable"></path><path d="M528,273.73c-7.71,13.23-6.27,33.78-6.27,33.78h4.37s-2.06-20.31,3.55-34a9.31,9.31,0,0,0,.43,6.75,7.51,7.51,0,0,0,2-1.73,4.05,4.05,0,0,1-.75-.23,6.35,6.35,0,0,0,1.14-.29,9.81,9.81,0,0,0,1.11-2.16,4.15,4.15,0,0,1-.6-.29,4.17,4.17,0,0,0,.71,0,10.12,10.12,0,0,0,.28-5.4,38.83,38.83,0,0,0,8,10.81c.72-5.62-1.58-10.53-4.87-12.45,2.09.29,4.2.49,6.31.59a10.33,10.33,0,0,0-.33-1.33,4.43,4.43,0,0,1,1,1.39l2.3.12c-4.08-4.54-10.33-6-12.87-2.63,1.09-3-2.34-6.62-7-7.62.33.53.66,1,1,1.53a3.68,3.68,0,0,1,1.36.16,6.41,6.41,0,0,0-1.06.3q1.26,2,2.7,3.87c-2.88-1.7-7.64-1.34-11.63,1.64A34.16,34.16,0,0,0,529,267.92a11.31,11.31,0,0,0-3.44,1.82,5.5,5.5,0,0,0,.78,2.11,2.61,2.61,0,0,1-1.66-1.33,9.07,9.07,0,0,0-2.83,5.31A9.63,9.63,0,0,0,528,273.73Zm4.82-6.05h0Z" style="fill: rgb(64, 123, 255); transform-origin: 532.63px 283.275px;" id="elck5jftsvkre" class="animable"></path><path d="M509.29,249.79c-9.92,17-8.06,43.49-8.06,43.49h5.63s-2.66-26.14,4.57-43.82a12,12,0,0,0,.55,8.68,9.68,9.68,0,0,0,2.51-2.22,6.74,6.74,0,0,1-1-.29,7.93,7.93,0,0,0,1.47-.38,12.83,12.83,0,0,0,1.43-2.78,6.08,6.08,0,0,1-.77-.37,5.58,5.58,0,0,0,.91-.07,13,13,0,0,0,.36-6.94A50.07,50.07,0,0,0,527.18,259c.92-7.23-2-13.56-6.27-16,2.7.38,5.4.63,8.12.76a12.55,12.55,0,0,0-.42-1.71,5.76,5.76,0,0,1,1.3,1.79l3,.16c-5.24-5.85-13.29-7.79-16.56-3.39,1.4-3.92-3-8.52-9-9.81.43.68.86,1.34,1.27,2a4.65,4.65,0,0,1,1.74.21,9.14,9.14,0,0,0-1.36.38c1.08,1.72,2.24,3.37,3.47,5-3.71-2.18-9.82-1.72-15,2.11a43.93,43.93,0,0,0,13,1.89,14.43,14.43,0,0,0-4.42,2.35,6.74,6.74,0,0,0,1,2.71,3.37,3.37,0,0,1-2.14-1.71,11.66,11.66,0,0,0-3.64,6.84A12.36,12.36,0,0,0,509.29,249.79Zm6.22-7.78h0Z" style="fill: rgb(64, 123, 255); transform-origin: 515.19px 262.04px;" id="el1vzsi029qlz" class="animable"></path><path d="M134.45,334.93a9.1,9.1,0,0,0-2.83-5.3A2.61,2.61,0,0,1,130,331a5.1,5.1,0,0,0,.78-2.1A11.19,11.19,0,0,0,127.3,327a33.77,33.77,0,0,0,10.07-1.47c-4-3-8.74-3.34-11.62-1.64,1-1.25,1.86-2.53,2.69-3.86a6.3,6.3,0,0,0-1-.3,3.49,3.49,0,0,1,1.36-.16l1-1.54c-4.62,1-8,4.58-7,7.62-2.53-3.41-8.78-1.91-12.86,2.64l2.29-.13a4.6,4.6,0,0,1,1-1.38,8.47,8.47,0,0,0-.32,1.32q3.16-.14,6.3-.59c-3.29,1.92-5.58,6.84-4.87,12.46a39.21,39.21,0,0,0,8-10.81,10.22,10.22,0,0,0,.27,5.4,4.29,4.29,0,0,0,.71,0,4.6,4.6,0,0,1-.59.29,9.77,9.77,0,0,0,1.1,2.16,5.63,5.63,0,0,0,1.14.3,4.63,4.63,0,0,1-.75.22,7.85,7.85,0,0,0,2,1.73,9.23,9.23,0,0,0,.43-6.74c5.62,13.73,3.55,34,3.55,34h4.38s1.44-20.55-6.27-33.79A9.56,9.56,0,0,0,134.45,334.93Zm-11.06-8.14Z" style="fill: rgb(64, 123, 255); transform-origin: 123.655px 342.275px;" id="el342v2xmanf4" class="animable"></path><path d="M247.49,255.72c-7.71,13.23-6.26,33.78-6.26,33.78h4.37s-2.06-20.31,3.55-34a9.26,9.26,0,0,0,.43,6.75,7.85,7.85,0,0,0,1.95-1.73,3.83,3.83,0,0,1-.75-.23,6.35,6.35,0,0,0,1.14-.29A9.81,9.81,0,0,0,253,257.8a4.15,4.15,0,0,1-.6-.29,4.17,4.17,0,0,0,.71-.05,10.22,10.22,0,0,0,.28-5.4,38.83,38.83,0,0,0,8,10.81c.71-5.62-1.58-10.53-4.87-12.45,2.09.29,4.2.49,6.31.59a10.33,10.33,0,0,0-.33-1.33,4.59,4.59,0,0,1,1,1.39l2.29.12c-4.07-4.54-10.32-6-12.86-2.63,1.09-3-2.34-6.62-7-7.62.33.53.66,1,1,1.53a3.68,3.68,0,0,1,1.36.16,6.41,6.41,0,0,0-1.06.3q1.26,2,2.69,3.87c-2.88-1.7-7.63-1.34-11.62,1.64a34.11,34.11,0,0,0,10.08,1.47,11.31,11.31,0,0,0-3.44,1.82,5.34,5.34,0,0,0,.78,2.11,2.65,2.65,0,0,1-1.67-1.33,9.11,9.11,0,0,0-2.82,5.31A9.58,9.58,0,0,0,247.49,255.72Zm4.83-6.05h0Z" style="fill: rgb(64, 123, 255); transform-origin: 252.045px 265.22px;" id="ele33zk2u2fpa" class="animable"></path><path d="M197.61,287a11.77,11.77,0,0,0-3.64-6.83,3.36,3.36,0,0,1-2.15,1.71,6.81,6.81,0,0,0,1-2.71,14.38,14.38,0,0,0-4.43-2.35,44,44,0,0,0,13-1.89c-5.14-3.84-11.26-4.3-15-2.12,1.23-1.61,2.39-3.26,3.47-5a7.85,7.85,0,0,0-1.36-.39,4.52,4.52,0,0,1,1.75-.2l1.26-2c-5.94,1.3-10.36,5.89-9,9.81-3.26-4.39-11.31-2.46-16.56,3.39l3-.16a5.75,5.75,0,0,1,1.31-1.78,9.82,9.82,0,0,0-.42,1.7c2.71-.12,5.42-.38,8.11-.76-4.23,2.47-7.18,8.8-6.26,16A50.26,50.26,0,0,0,182,279.54a13.16,13.16,0,0,0,.35,6.95,4.74,4.74,0,0,0,.92.06,5.45,5.45,0,0,1-.77.37,12.57,12.57,0,0,0,1.42,2.78,6.91,6.91,0,0,0,1.47.38,4.53,4.53,0,0,1-1,.29,10.13,10.13,0,0,0,2.52,2.23,12,12,0,0,0,.55-8.68c7.23,17.67,4.57,43.81,4.57,43.81h5.63s1.85-26.45-8.07-43.48A12.38,12.38,0,0,0,197.61,287Zm-14.23-10.48Z" style="fill: rgb(64, 123, 255); transform-origin: 183.67px 296.475px;" id="eldrvdg0rtn4o" class="animable"></path><path d="M406,202.51a16.42,16.42,0,0,0-5.08-9.56,4.7,4.7,0,0,1-3,2.39,9.26,9.26,0,0,0,1.4-3.79,20.07,20.07,0,0,0-6.18-3.28,61.7,61.7,0,0,0,18.14-2.65c-7.18-5.36-15.74-6-20.93-3,1.72-2.25,3.35-4.56,4.86-6.95a11.57,11.57,0,0,0-1.91-.55,6.76,6.76,0,0,1,2.45-.28l1.77-2.77c-8.32,1.82-14.5,8.25-12.54,13.73-4.57-6.15-15.82-3.45-23.16,4.74l4.13-.22a8,8,0,0,1,1.82-2.5,16.35,16.35,0,0,0-.59,2.39q5.7-.27,11.35-1.07c-5.92,3.45-10.05,12.31-8.76,22.43a70.11,70.11,0,0,0,14.35-19.46,18.29,18.29,0,0,0,.5,9.71,6.83,6.83,0,0,0,1.28.09,7.69,7.69,0,0,1-1.08.52,17.18,17.18,0,0,0,2,3.88,10.32,10.32,0,0,0,2.05.54,7.2,7.2,0,0,1-1.35.4,13.76,13.76,0,0,0,3.51,3.12,16.68,16.68,0,0,0,.77-12.14c10.11,24.72,6.39,61.28,6.39,61.28h7.88s2.6-37-11.28-60.82A17.31,17.31,0,0,0,406,202.51Zm-19.9-14.66Z" style="fill: rgb(64, 123, 255); transform-origin: 386.55px 215.79px;" id="elkgrth6uzxsr" class="animable"></path><path d="M482,250c-7.29,12.51-5.92,31.94-5.92,31.94h4.13s-1.95-19.21,3.36-32.19a8.78,8.78,0,0,0,.4,6.38,7.25,7.25,0,0,0,1.85-1.64,3.61,3.61,0,0,1-.71-.21,5,5,0,0,0,1.08-.28,9.12,9.12,0,0,0,1-2,5.77,5.77,0,0,1-.56-.27,3.78,3.78,0,0,0,.67,0,9.6,9.6,0,0,0,.26-5.1,36.9,36.9,0,0,0,7.54,10.22c.67-5.32-1.5-10-4.6-11.78q3,.42,6,.56a10.86,10.86,0,0,0-.31-1.25,4.43,4.43,0,0,1,1,1.31l2.16.12c-3.85-4.3-9.76-5.72-12.16-2.49,1-2.88-2.21-6.26-6.58-7.21.31.5.62,1,.92,1.45a3.52,3.52,0,0,1,1.29.15,6.75,6.75,0,0,0-1,.29c.79,1.25,1.65,2.47,2.55,3.65-2.73-1.6-7.22-1.26-11,1.55a32.05,32.05,0,0,0,9.53,1.39,10.54,10.54,0,0,0-3.25,1.73,5,5,0,0,0,.73,2,2.45,2.45,0,0,1-1.57-1.26,8.55,8.55,0,0,0-2.67,5A9.08,9.08,0,0,0,482,250Zm4.56-5.72Z" style="fill: rgb(64, 123, 255); transform-origin: 486.36px 259.025px;" id="ela6y7q4cs1h" class="animable"></path><path d="M420.32,221C413,233.52,414.39,253,414.39,253h4.14s-2-19.2,3.35-32.18a8.76,8.76,0,0,0,.41,6.37,7.17,7.17,0,0,0,1.84-1.63,3.64,3.64,0,0,1-.71-.22,4.52,4.52,0,0,0,1.08-.28,9.37,9.37,0,0,0,1.05-2,3,3,0,0,1-.57-.27,3.71,3.71,0,0,0,.67,0,9.64,9.64,0,0,0,.27-5.11,36.72,36.72,0,0,0,7.53,10.22c.68-5.31-1.49-10-4.6-11.78q3,.42,6,.57a7.73,7.73,0,0,0-.31-1.26,4.26,4.26,0,0,1,1,1.31l2.17.12c-3.86-4.3-9.77-5.72-12.17-2.49,1-2.88-2.21-6.25-6.58-7.21l.93,1.46a3.27,3.27,0,0,1,1.28.15,6,6,0,0,0-1,.28c.8,1.26,1.65,2.47,2.55,3.65-2.72-1.6-7.21-1.26-11,1.56a32.47,32.47,0,0,0,9.53,1.39,10.41,10.41,0,0,0-3.25,1.72,4.9,4.9,0,0,0,.74,2,2.48,2.48,0,0,1-1.58-1.25,8.64,8.64,0,0,0-2.67,5A9.05,9.05,0,0,0,420.32,221Zm4.56-5.72h0Z" style="fill: rgb(64, 123, 255); transform-origin: 424.715px 230.08px;" id="elulaizo23htl" class="animable"></path><g id="el69nfzlfq26b"><path d="M394.81,299.33a11.23,11.23,0,0,0,.52,8.2,9.15,9.15,0,0,0,2.37-2.1,4.76,4.76,0,0,1-.91-.27,7.5,7.5,0,0,0,1.39-.37,11.57,11.57,0,0,0,1.34-2.62,6,6,0,0,1-.72-.35,6.11,6.11,0,0,0,.86-.06,12.45,12.45,0,0,0,.34-6.57,47.49,47.49,0,0,0,9.7,13.16c.86-6.84-1.93-12.83-5.93-15.16q3.83.54,7.67.72a10.8,10.8,0,0,0-.39-1.61,5.57,5.57,0,0,1,1.23,1.69l2.78.15c-4.95-5.53-12.56-7.36-15.64-3.21,1.32-3.7-2.85-8.05-8.47-9.27.41.65.8,1.27,1.19,1.87a4.38,4.38,0,0,1,1.65.19,7.84,7.84,0,0,0-1.28.37c1,1.61,2.12,3.18,3.28,4.7-3.51-2.07-9.29-1.63-14.15,2a41.55,41.55,0,0,0,12.27,1.78,13.51,13.51,0,0,0-4.18,2.22,6.29,6.29,0,0,0,.94,2.56,3.19,3.19,0,0,1-2-1.61,11.08,11.08,0,0,0-3.43,6.46,11.72,11.72,0,0,0,7.58-2.56c-7.88,13.54-7.9,33.36-7.7,39.33a8.72,8.72,0,0,1,1.53,1.38,9.73,9.73,0,0,1,1.31-2.83c.23,1,.45,2,.68,3a10.41,10.41,0,0,1,1.7-2C389.89,332.07,389.21,313,394.81,299.33Zm3.85-7h0Z" style="fill: rgb(255, 255, 255); opacity: 0.2; transform-origin: 398.35px 311.09px;" class="animable"></path></g><g id="elsc733j246sh"><path d="M509.09,326a12.36,12.36,0,0,0,.71,9.93,12.07,12.07,0,0,0,3.19-2.55,7.44,7.44,0,0,1-1.23-.33,10,10,0,0,0,1.87-.44,13.52,13.52,0,0,0,1.81-3.17,8.5,8.5,0,0,1-1-.42,7.67,7.67,0,0,0,1.17-.08,13.51,13.51,0,0,0,.45-7.94,58.28,58.28,0,0,0,13.06,15.91c1.17-8.27-2.59-15.51-8-18.33,3.43.43,6.87.73,10.33.87a12.24,12.24,0,0,0-.53-2,6.72,6.72,0,0,1,1.65,2l3.76.18c-6.68-6.69-16.92-8.89-21.07-3.87,1.78-4.48-3.84-9.74-11.41-11.22l1.61,2.26a6.46,6.46,0,0,1,2.23.24,11.67,11.67,0,0,0-1.74.44c1.38,1.95,2.86,3.85,4.42,5.68-4.72-2.49-12.5-2-19,2.42a61.65,61.65,0,0,0,16.51,2.16,18.93,18.93,0,0,0-5.63,2.69,7.28,7.28,0,0,0,1.27,3.09,4.26,4.26,0,0,1-2.73-1.95,13,13,0,0,0-4.62,7.81,16.89,16.89,0,0,0,10.21-3.09C495.76,342.78,495.74,366.76,496,374a10.59,10.59,0,0,1,2.07,1.67,11.31,11.31,0,0,1,1.77-3.43l.9,3.61a13.11,13.11,0,0,1,2.3-2.41C502.47,365.64,501.56,342.59,509.09,326Zm5.18-8.51h0Z" style="fill: rgb(255, 255, 255); opacity: 0.2; transform-origin: 513.85px 340.195px;" class="animable"></path></g><g id="elp804isdw6z9"><path d="M446.64,306.43a7.07,7.07,0,0,0,.33,5.16,5.72,5.72,0,0,0,1.49-1.33,2.21,2.21,0,0,1-.57-.17,4.44,4.44,0,0,0,.87-.22,7.88,7.88,0,0,0,.85-1.66,2.77,2.77,0,0,1-.46-.22,3.26,3.26,0,0,0,.54,0,7.85,7.85,0,0,0,.22-4.14,29.7,29.7,0,0,0,6.1,8.28c.55-4.3-1.21-8.07-3.73-9.54,1.6.23,3.21.38,4.83.46a6.9,6.9,0,0,0-.25-1,3.36,3.36,0,0,1,.77,1.06l1.76.1c-3.12-3.48-7.91-4.63-9.85-2,.83-2.33-1.79-5.06-5.33-5.83l.75,1.17a3.06,3.06,0,0,1,1,.12,6.89,6.89,0,0,0-.81.23c.64,1,1.33,2,2.06,3-2.2-1.3-5.84-1-8.9,1.26a26,26,0,0,0,7.72,1.12,8.59,8.59,0,0,0-2.63,1.4,3.89,3.89,0,0,0,.6,1.61,2,2,0,0,1-1.28-1,7,7,0,0,0-2.16,4.06,7.38,7.38,0,0,0,4.77-1.61c-5,8.52-5,21-4.85,24.75a5.34,5.34,0,0,1,1,.87,5.88,5.88,0,0,1,.82-1.78c.14.62.28,1.25.43,1.88a6.44,6.44,0,0,1,1.07-1.26C443.54,327,443.12,315,446.64,306.43Zm2.42-4.43h0Z" style="fill: rgb(255, 255, 255); opacity: 0.2; transform-origin: 448.85px 313.92px;" class="animable"></path></g><g id="elfwftk63dowq"><path d="M366.67,352.26a12.76,12.76,0,0,1,2,2.34l.79-3.5a11.44,11.44,0,0,1,1.53,3.33,10,10,0,0,1,1.81-1.62c.22-7,.21-30.25-9-46.13a13.71,13.71,0,0,0,8.9,3,13,13,0,0,0-4-7.57,3.74,3.74,0,0,1-2.38,1.89,7.39,7.39,0,0,0,1.12-3,16,16,0,0,0-4.91-2.61,48.73,48.73,0,0,0,14.38-2.09c-5.69-4.25-12.47-4.77-16.58-2.35,1.36-1.78,2.65-3.61,3.84-5.51a9.86,9.86,0,0,0-1.5-.43,5.25,5.25,0,0,1,1.93-.23c.46-.7.92-1.43,1.4-2.19-6.59,1.44-11.48,6.53-9.93,10.88-3.62-4.87-12.54-2.73-18.35,3.76l3.27-.18a6.42,6.42,0,0,1,1.44-2,13.74,13.74,0,0,0-.47,1.89c3-.14,6-.42,9-.85-4.69,2.74-8,9.76-6.95,17.78a55.56,55.56,0,0,0,11.38-15.42,14.54,14.54,0,0,0,.39,7.7,7,7,0,0,0,1,.07,7.36,7.36,0,0,1-.85.41,13.76,13.76,0,0,0,1.57,3.08,8.31,8.31,0,0,0,1.63.42,5.73,5.73,0,0,1-1.07.32,10.92,10.92,0,0,0,2.78,2.47,13.18,13.18,0,0,0,.61-9.62C368,322.37,367.17,344.72,366.67,352.26Zm-9.79-54.2h0Z" style="fill: rgb(255, 255, 255); opacity: 0.2; transform-origin: 357.315px 320.095px;" class="animable"></path></g><g id="el65gxwutia3l"><path d="M437.72,281a14.06,14.06,0,0,0,.65,10.2,11.36,11.36,0,0,0,2.95-2.62,5.46,5.46,0,0,1-1.13-.34,8.54,8.54,0,0,0,1.72-.45,14.35,14.35,0,0,0,1.67-3.26,7.43,7.43,0,0,1-.9-.43,6.54,6.54,0,0,0,1.08-.08,15.45,15.45,0,0,0,.42-8.16,58.8,58.8,0,0,0,12.05,16.35c1.08-8.5-2.39-15.94-7.36-18.84q4.74.67,9.53.9a13.7,13.7,0,0,0-.49-2,6.76,6.76,0,0,1,1.53,2.1l3.46.19c-6.16-6.88-15.61-9.15-19.45-4,1.65-4.6-3.54-10-10.53-11.52l1.49,2.32a5.47,5.47,0,0,1,2,.24,11.19,11.19,0,0,0-1.6.45c1.27,2,2.64,4,4.08,5.84-4.36-2.56-11.54-2-17.58,2.49a51.53,51.53,0,0,0,15.24,2.22,16.93,16.93,0,0,0-5.19,2.76,7.94,7.94,0,0,0,1.17,3.19,4,4,0,0,1-2.52-2,13.73,13.73,0,0,0-4.27,8,14.5,14.5,0,0,0,9.43-3.17c-9.8,16.83-9.82,41.47-9.58,48.89a10.05,10.05,0,0,1,1.91,1.72,12.06,12.06,0,0,1,1.63-3.53l.84,3.71a12.54,12.54,0,0,1,2.12-2.48C431.61,321.69,430.76,298,437.72,281Zm4.79-8.75h0Z" style="fill: rgb(255, 255, 255); opacity: 0.2; transform-origin: 442.105px 295.605px;" class="animable"></path></g><path d="M485.2,346.25c-17.17-14.67-37.56-28.39-60.14-27.58-16.86.61-32.31,9.31-46.22,18.86a323.56,323.56,0,0,0-55.6,48.37l202.3.49A373.81,373.81,0,0,0,485.2,346.25Z" style="fill: rgb(64, 123, 255); transform-origin: 424.39px 352.513px;" id="el7qj784m3me9" class="animable"></path><g id="el4uzfmlyt9q2"><g style="opacity: 0.2; transform-origin: 424.39px 352.513px;" class="animable"><path d="M485.2,346.25c-17.17-14.67-37.56-28.39-60.14-27.58-16.86.61-32.31,9.31-46.22,18.86a323.56,323.56,0,0,0-55.6,48.37l202.3.49A373.81,373.81,0,0,0,485.2,346.25Z" style="fill: rgb(255, 255, 255); transform-origin: 424.39px 352.513px;" id="el9g5xhv026n" class="animable"></path></g></g></g><g id="freepik--Trees--inject-39" class="animable" style="transform-origin: 373.565px 237.055px;"><path d="M627,215.4c-51.69,46-49.19,151.68-48.32,170.31l18.85-.17c0-.07,0-.14,0-.21C596,366.14,589.88,265.6,627,215.4Z" style="fill: rgb(205, 135, 123); transform-origin: 602.683px 300.555px;" id="el2pcy7b3jj3o" class="animable"></path><g id="el74184nja5b"><path d="M578.37,370.1V373a109.56,109.56,0,0,1,18.38-.5c0-.94-.08-1.94-.12-2.94A110.27,110.27,0,0,0,578.37,370.1Z" style="isolation: isolate; opacity: 0.2; transform-origin: 587.56px 371.202px;" class="animable"></path></g><g id="elv4aay9h726c"><path d="M578.73,354.25c0,1-.08,2-.11,2.94a105.19,105.19,0,0,1,17.66-.1c0-1,0-2,0-2.94A105.55,105.55,0,0,0,578.73,354.25Z" style="isolation: isolate; opacity: 0.2; transform-origin: 587.45px 355.511px;" class="animable"></path></g><g id="elxmm6zrb1opa"><path d="M579.75,338.21c-.08,1-.16,2-.23,2.94a102.24,102.24,0,0,1,16.78.36c0-1,0-2,.06-2.94A102.37,102.37,0,0,0,579.75,338.21Z" style="isolation: isolate; opacity: 0.2; transform-origin: 587.94px 339.769px;" class="animable"></path></g><g id="el5uy0kdalgp6"><path d="M581.48,322.05c-.12,1-.25,2-.37,2.94a98.47,98.47,0,0,1,15.73.87c0-1,.11-2,.17-2.94A100.83,100.83,0,0,0,581.48,322.05Z" style="isolation: isolate; opacity: 0.2; transform-origin: 589.06px 323.944px;" class="animable"></path></g><g id="elupgiwis4xzg"><path d="M583.49,308.76A96.16,96.16,0,0,1,598,310.13l.28-2.93A96.94,96.94,0,0,0,584,305.85C583.84,306.82,583.66,307.79,583.49,308.76Z" style="isolation: isolate; opacity: 0.2; transform-origin: 590.885px 307.99px;" class="animable"></path></g><g id="elcsedb6i88t"><path d="M586.77,292.6a97.87,97.87,0,0,1,13,1.87c.13-1,.27-2,.41-2.94a98.42,98.42,0,0,0-12.69-1.82C587.23,290.69,587,291.64,586.77,292.6Z" style="isolation: isolate; opacity: 0.2; transform-origin: 593.475px 292.09px;" class="animable"></path></g><g id="el72lf36nvwuf"><path d="M591.07,276.69a106.83,106.83,0,0,1,11.2,2.28c.18-1,.37-1.93.59-2.9A109.19,109.19,0,0,0,592,273.86C591.66,274.8,591.36,275.75,591.07,276.69Z" style="isolation: isolate; opacity: 0.2; transform-origin: 596.965px 276.415px;" class="animable"></path></g><g id="elpy6n34bikf"><path d="M596.53,261.27c3,.69,6.16,1.55,9.13,2.5.25-.95.5-1.91.76-2.86-2.85-.9-5.82-1.72-8.76-2.39C597.28,259.43,596.9,260.34,596.53,261.27Z" style="isolation: isolate; opacity: 0.2; transform-origin: 601.475px 261.145px;" class="animable"></path></g><g id="eluohiblo4ii"><path d="M604.7,244c-.49.88-1,1.77-1.44,2.64q3.53,1.13,6.8,2.42c.31-.93.64-1.86,1-2.78C609,245.5,606.86,244.73,604.7,244Z" style="isolation: isolate; opacity: 0.2; transform-origin: 607.16px 246.53px;" class="animable"></path></g><path d="M627.54,249.45a18.6,18.6,0,0,0,2.58,1.25,41.65,41.65,0,0,1-4.79,9.4,23,23,0,0,1-5,1.28,17.11,17.11,0,0,0,3.27,1,32.88,32.88,0,0,1-8.48,7.51c-10.42-20.46,3.3-45.65,11.88-54.46,6.31,7.94,7.57,21.63,3.59,33.84A17.64,17.64,0,0,1,627.54,249.45Z" style="fill: rgb(64, 123, 255); transform-origin: 622.12px 242.66px;" id="elx0fcv32bds" class="animable"></path><path d="M627,215.4c7.73,18,20,39.25,39.47,57.39C670.82,238.74,649.77,210.66,627,215.4Z" style="fill: rgb(64, 123, 255); transform-origin: 647.022px 243.833px;" id="elzri3jgvw5b" class="animable"></path><path d="M671.31,215.42a37.7,37.7,0,0,1,1.43,5.84c-19.27-1.25-34.29-3.17-45.71-5.88,8.42-20.87,39.23-15.09,58.64,6.57-3.43-.16-6.75-.33-9.94-.53A19.67,19.67,0,0,0,671.31,215.42Z" style="fill: rgb(64, 123, 255); transform-origin: 656.35px 212.167px;" id="elh4y039kejzo" class="animable"></path><path d="M627,215.4c-4.88,12.25-23.56,36.66-48.14,35.39,1.17-9,5.87-16.92,12.29-23.07,1.52,2.41,3.93,5.18,7.24,5.7a23,23,0,0,1-3.3-9.11C605,216.64,617.44,212.93,627,215.4Z" style="fill: rgb(64, 123, 255); transform-origin: 602.93px 232.739px;" id="elb1iqf9dm02o" class="animable"></path><path d="M627,215.4c-17,1.86-38.55,1.67-60.8-5.39C590.35,192.05,620.85,196,627,215.4Z" style="fill: rgb(64, 123, 255); transform-origin: 596.6px 207.438px;" id="eldwhafl7pvj" class="animable"></path><path d="M609.66,184.78a28.45,28.45,0,0,0-4.61,1.3c8.43,12.84,15.64,22.46,22,29.32,11.13-14-4.95-33.06-27.54-38q2.19,3.47,4.27,6.67A15.54,15.54,0,0,1,609.66,184.78Z" style="fill: rgb(64, 123, 255); transform-origin: 615.088px 196.4px;" id="ele2840xwtizl" class="animable"></path><g id="el1drkr1t2k5m"><g style="opacity: 0.3; transform-origin: 634.595px 229.35px;" class="animable"><path d="M639.73,239.81c-2.58-8.25-3.83-12.13-10.27-20.92a38.43,38.43,0,0,1,2.48,7.07c-.07.08,4.61,8.78,5.62,10.34S639.73,239.81,639.73,239.81Z" id="el0mly4vi95b8b" class="animable" style="transform-origin: 634.595px 229.35px;"></path></g></g><g id="elfmsi4ivtc9e"><path d="M645.41,218.67s-10.33-5.48-17.2-3.46c0,0,2.65-2,8.6-1C640.68,214.76,645.41,218.67,645.41,218.67Z" style="opacity: 0.3; transform-origin: 636.81px 216.3px;" class="animable"></path></g><g id="elu6pcm4q0jeq"><g style="opacity: 0.3; transform-origin: 619.875px 206.625px;" class="animable"><path d="M621,205.58c-1.33-1.74-2.94-3.74-5.13-3.84l.83,1.13a25.13,25.13,0,0,1,7.18,8.64A18.27,18.27,0,0,0,621,205.58Z" id="elu2ogo1tribr" class="animable" style="transform-origin: 619.875px 206.625px;"></path></g></g><g id="elgqb9ickdrcu"><g style="opacity: 0.3; transform-origin: 608.61px 215.242px;" class="animable"><path d="M601,216.29l9.14.11a50.53,50.53,0,0,0,6.08-1.76C612,212.75,601,216.29,601,216.29Z" id="elet5ch5javb5" class="animable" style="transform-origin: 608.61px 215.242px;"></path></g></g><g id="el5azkm93smlq"><path d="M616.31,232.12l7.19-9.79s-4.77,9.84-8.43,12.81Z" style="opacity: 0.3; transform-origin: 619.285px 228.735px;" class="animable"></path></g><path d="M120.13,215.4c51.69,46,49.19,151.68,48.32,170.31l-18.83.08c0-.07,0-.39,0-.46C151.16,366.14,157.25,265.6,120.13,215.4Z" style="fill: rgb(205, 135, 123); transform-origin: 144.447px 300.595px;" id="elqefo2kjfvud" class="animable"></path><g id="elfdco1g4wji"><path d="M150.5,369.6c0,1-.08,2-.13,2.94a109.65,109.65,0,0,1,18.39.5V370.1A110.27,110.27,0,0,0,150.5,369.6Z" style="isolation: isolate; opacity: 0.2; transform-origin: 159.565px 371.235px;" class="animable"></path></g><g id="elvtrzuuidfib"><path d="M150.89,354.15c0,1,0,2,0,2.94a105.19,105.19,0,0,1,17.66.1q0-1.45-.12-2.94A105.43,105.43,0,0,0,150.89,354.15Z" style="isolation: isolate; opacity: 0.2; transform-origin: 159.72px 355.511px;" class="animable"></path></g><g id="elkxv4603ff8"><path d="M150.77,338.57c0,1,.06,2,.06,2.94a102.24,102.24,0,0,1,16.78-.36c-.07-1-.15-1.95-.23-2.94A102.37,102.37,0,0,0,150.77,338.57Z" style="isolation: isolate; opacity: 0.2; transform-origin: 159.19px 339.769px;" class="animable"></path></g><g id="elv7s1ld5dmxq"><path d="M150.12,322.92c.06,1,.12,2,.17,2.94A98.41,98.41,0,0,1,166,325c-.11-1-.24-1.95-.36-2.94A100.83,100.83,0,0,0,150.12,322.92Z" style="isolation: isolate; opacity: 0.2; transform-origin: 158.06px 323.948px;" class="animable"></path></g><g id="el61phpfxtpii"><path d="M163.12,305.85a96.94,96.94,0,0,0-14.23,1.35l.28,2.93a96,96,0,0,1,14.46-1.37C163.47,307.79,163.29,306.82,163.12,305.85Z" style="isolation: isolate; opacity: 0.2; transform-origin: 156.26px 307.99px;" class="animable"></path></g><g id="el7cj4mi5976y"><path d="M159.67,289.71A98.42,98.42,0,0,0,147,291.53c.14,1,.28,2,.41,2.94a97.87,97.87,0,0,1,13-1.87C160.14,291.64,159.9,290.69,159.67,289.71Z" style="isolation: isolate; opacity: 0.2; transform-origin: 153.705px 292.09px;" class="animable"></path></g><g id="elgx20jz7caip"><path d="M155.15,273.86a109.19,109.19,0,0,0-10.88,2.21c.22,1,.41,1.94.59,2.9a106.83,106.83,0,0,1,11.2-2.28C155.77,275.75,155.46,274.8,155.15,273.86Z" style="isolation: isolate; opacity: 0.2; transform-origin: 150.165px 276.415px;" class="animable"></path></g><g id="elw0xallx7i7"><path d="M149.47,258.52c-2.94.67-5.91,1.49-8.76,2.39.26.95.51,1.91.76,2.86,3-.95,6.09-1.81,9.13-2.5C150.23,260.34,149.85,259.43,149.47,258.52Z" style="isolation: isolate; opacity: 0.2; transform-origin: 145.655px 261.145px;" class="animable"></path></g><g id="eldx6fdqdshgd"><path d="M136.09,246.3c.34.92.67,1.85,1,2.78q3.27-1.29,6.8-2.42c-.47-.87-1-1.76-1.44-2.64C140.26,244.73,138.13,245.5,136.09,246.3Z" style="isolation: isolate; opacity: 0.2; transform-origin: 139.99px 246.55px;" class="animable"></path></g><path d="M116.51,249.26c-4-12.21-2.72-25.9,3.59-33.84,8.58,8.81,22.3,34,11.88,54.46a32.88,32.88,0,0,1-8.48-7.51,17.11,17.11,0,0,0,3.27-1,23,23,0,0,1-5-1.28,41.65,41.65,0,0,1-4.79-9.4,18.6,18.6,0,0,0,2.58-1.25A17.64,17.64,0,0,1,116.51,249.26Z" style="fill: rgb(64, 123, 255); transform-origin: 124.976px 242.65px;" id="eleqf2pkxn4ch" class="animable"></path><path d="M80.63,272.79c19.48-18.14,31.74-39.4,39.47-57.39C97.36,210.66,76.31,238.74,80.63,272.79Z" style="fill: rgb(64, 123, 255); transform-origin: 100.081px 243.833px;" id="els6w8gbcihkq" class="animable"></path><path d="M71.4,221.42c-3.2.2-6.51.37-9.94.53,19.4-21.66,50.22-27.44,58.64-6.57-11.42,2.71-26.44,4.63-45.71,5.88a37.7,37.7,0,0,1,1.43-5.84A19.67,19.67,0,0,0,71.4,221.42Z" style="fill: rgb(64, 123, 255); transform-origin: 90.78px 212.167px;" id="elbd8ndw6edag" class="animable"></path><path d="M152,224.31a22.86,22.86,0,0,1-3.31,9.11c3.31-.52,5.73-3.29,7.25-5.7,6.41,6.15,11.12,14.1,12.29,23.07-24.58,1.27-43.26-23.14-48.14-35.39C129.69,212.93,142.13,216.64,152,224.31Z" style="fill: rgb(64, 123, 255); transform-origin: 144.16px 232.739px;" id="elggy6pt3p2zo" class="animable"></path><path d="M180.9,210c-22.25,7.06-43.76,7.25-60.8,5.39C126.28,196,156.77,192.05,180.9,210Z" style="fill: rgb(64, 123, 255); transform-origin: 150.5px 207.432px;" id="elkiv25nwtuh" class="animable"></path><path d="M143.37,184.08q2.08-3.21,4.27-6.67c-22.59,4.93-38.67,24-27.54,38,6.33-6.86,13.55-16.48,22-29.32a28.06,28.06,0,0,0-4.6-1.3A15.54,15.54,0,0,1,143.37,184.08Z" style="fill: rgb(64, 123, 255); transform-origin: 132.062px 196.41px;" id="elo28k2eajgte" class="animable"></path><g id="elg3syb1tgsu"><g style="opacity: 0.3; transform-origin: 112.53px 229.35px;" class="animable"><path d="M107.39,239.81c2.59-8.25,3.84-12.13,10.28-20.92a37.7,37.7,0,0,0-2.48,7.07c.06.08-4.62,8.78-5.62,10.34S107.39,239.81,107.39,239.81Z" id="elkdd2jjoyieo" class="animable" style="transform-origin: 112.53px 229.35px;"></path></g></g><g id="el4j49sc0g0dd"><path d="M101.72,218.67s10.33-5.48,17.2-3.46c0,0-2.65-2-8.6-1C106.45,214.76,101.72,218.67,101.72,218.67Z" style="opacity: 0.3; transform-origin: 110.32px 216.3px;" class="animable"></path></g><g id="el0iyt9j4qzyj"><g style="opacity: 0.3; transform-origin: 127.225px 206.625px;" class="animable"><path d="M126.09,205.58c1.34-1.74,2.95-3.74,5.14-3.84l-.84,1.13a25.22,25.22,0,0,0-7.17,8.64A18.24,18.24,0,0,1,126.09,205.58Z" id="ell3syrpoq2sk" class="animable" style="transform-origin: 127.225px 206.625px;"></path></g></g><g id="elf2ff2xx6h8n"><g style="opacity: 0.3; transform-origin: 138.57px 215.242px;" class="animable"><path d="M146.18,216.29l-9.14.11a50.53,50.53,0,0,1-6.08-1.76C135.18,212.75,146.18,216.29,146.18,216.29Z" id="ellhpkfm6ty1o" class="animable" style="transform-origin: 138.57px 215.242px;"></path></g></g><g id="el0vdmuxjc9zfa"><path d="M130.82,232.12l-7.19-9.79s4.77,9.84,8.43,12.81Z" style="opacity: 0.3; transform-origin: 127.845px 228.735px;" class="animable"></path></g><path d="M243.09,98.84a41.37,41.37,0,0,0-6.57,1.86c12,18.33,22.33,32.07,31.37,41.86,15.9-20-7.06-47.2-39.32-54.24q3.12,5,6.09,9.53A22.08,22.08,0,0,1,243.09,98.84Z" style="fill: rgb(64, 123, 255); transform-origin: 250.814px 115.44px;" id="el3lfdhr0hhwi" class="animable"></path><g id="elcjojow03ylm"><path d="M243.09,98.84a41.37,41.37,0,0,0-6.57,1.86c12,18.33,22.33,32.07,31.37,41.86,15.9-20-7.06-47.2-39.32-54.24q3.12,5,6.09,9.53A22.08,22.08,0,0,1,243.09,98.84Z" style="fill: rgb(255, 255, 255); opacity: 0.3; transform-origin: 250.814px 115.44px;" class="animable"></path></g><path d="M331.11,142.58a53.1,53.1,0,0,1,2,8.34c-27.5-1.79-48.94-4.52-65.25-8.39,12-29.79,56-21.55,83.72,9.37q-7.35-.33-14.19-.75A28.18,28.18,0,0,0,331.11,142.58Z" style="fill: rgb(64, 123, 255); transform-origin: 309.72px 137.938px;" id="elayg6se3p6c" class="animable"></path><g id="el0vf2xv60k29p"><path d="M331.11,142.58a53.1,53.1,0,0,1,2,8.34c-27.5-1.79-48.94-4.52-65.25-8.39,12-29.79,56-21.55,83.72,9.37q-7.35-.33-14.19-.75A28.18,28.18,0,0,0,331.11,142.58Z" style="fill: rgb(255, 255, 255); opacity: 0.3; transform-origin: 309.72px 137.938px;" class="animable"></path></g><path d="M267.84,142.56c-73.79,65.68-70.22,216.56-69,243.15l26.91-.24c0-.1,0-.2,0-.3C223.55,357.77,214.85,214.23,267.84,142.56Z" style="fill: rgb(159, 91, 83); transform-origin: 233.12px 264.135px;" id="elq2ax4tt94n" class="animable"></path><g id="elj8z7zmibpk"><path d="M198.42,363.43v4.2a155.5,155.5,0,0,1,26.25-.72c-.07-1.35-.13-2.77-.19-4.19A154.33,154.33,0,0,0,198.42,363.43Z" style="isolation: isolate; opacity: 0.2; transform-origin: 211.545px 365.048px;" class="animable"></path></g><g id="elb8x6dtpv349"><path d="M198.94,340.79c-.07,1.42-.12,2.82-.17,4.2a151.7,151.7,0,0,1,25.22-.15c0-1.38,0-2.78-.05-4.19A151.22,151.22,0,0,0,198.94,340.79Z" style="isolation: isolate; opacity: 0.2; transform-origin: 211.38px 342.595px;" class="animable"></path></g><g id="elzhmckwvdgf"><path d="M200.39,317.9c-.12,1.41-.23,2.8-.34,4.19a146.35,146.35,0,0,1,24,.52c0-1.4.06-2.81.09-4.2A146.64,146.64,0,0,0,200.39,317.9Z" style="isolation: isolate; opacity: 0.2; transform-origin: 212.095px 320.125px;" class="animable"></path></g><g id="elbf5c5wpatmf"><path d="M202.86,294.83c-.18,1.4-.36,2.78-.52,4.19a140.48,140.48,0,0,1,22.45,1.24c.07-1.4.15-2.81.24-4.2A141.7,141.7,0,0,0,202.86,294.83Z" style="isolation: isolate; opacity: 0.2; transform-origin: 213.685px 297.526px;" class="animable"></path></g><g id="elsi7yjct00qp"><path d="M205.74,275.85a137.59,137.59,0,0,1,20.65,2l.4-4.19a139.89,139.89,0,0,0-20.32-1.93C206.22,273.08,206,274.46,205.74,275.85Z" style="isolation: isolate; opacity: 0.2; transform-origin: 216.265px 274.79px;" class="animable"></path></g><g id="elwb66qn0j9rm"><path d="M210.41,252.77a141,141,0,0,1,18.52,2.68c.18-1.39.39-2.78.59-4.2a143.75,143.75,0,0,0-18.12-2.6C211.06,250,210.73,251.41,210.41,252.77Z" style="isolation: isolate; opacity: 0.2; transform-origin: 219.965px 252.05px;" class="animable"></path></g><g id="elp8yfrqcl99"><path d="M216.55,230.06a150,150,0,0,1,16,3.26c.26-1.38.53-2.76.84-4.14A149.33,149.33,0,0,0,217.85,226C217.4,227.37,217,228.71,216.55,230.06Z" style="isolation: isolate; opacity: 0.2; transform-origin: 224.97px 229.66px;" class="animable"></path></g><g id="elry49l2ghs1"><path d="M224.34,208c4.35,1,8.8,2.22,13,3.58q.52-2.06,1.08-4.08c-4.06-1.29-8.31-2.47-12.5-3.42C225.42,205.41,224.88,206.72,224.34,208Z" style="isolation: isolate; opacity: 0.2; transform-origin: 231.38px 207.83px;" class="animable"></path></g><g id="elfbop8h4lpej"><path d="M236,183.42c-.69,1.25-1.37,2.52-2,3.77q5,1.6,9.7,3.46c.45-1.34.92-2.67,1.4-4C242.15,185.53,239.1,184.43,236,183.42Z" style="isolation: isolate; opacity: 0.2; transform-origin: 239.55px 187.035px;" class="animable"></path></g><path d="M268.61,191.17a26.28,26.28,0,0,0,3.7,1.79,60.41,60.41,0,0,1-6.84,13.42,33.69,33.69,0,0,1-7.1,1.83,24.61,24.61,0,0,0,4.67,1.4,47.07,47.07,0,0,1-12.11,10.74c-14.88-29.22,4.71-65.19,17-77.76,9,11.33,10.81,30.87,5.13,48.31A25,25,0,0,1,268.61,191.17Z" style="fill: rgb(64, 123, 255); transform-origin: 260.943px 181.47px;" id="elo3urrofk8fd" class="animable"></path><g id="elvgek347fjzk"><path d="M268.61,191.17a26.28,26.28,0,0,0,3.7,1.79,60.41,60.41,0,0,1-6.84,13.42,33.69,33.69,0,0,1-7.1,1.83,24.61,24.61,0,0,0,4.67,1.4,47.07,47.07,0,0,1-12.11,10.74c-14.88-29.22,4.71-65.19,17-77.76,9,11.33,10.81,30.87,5.13,48.31A25,25,0,0,1,268.61,191.17Z" style="fill: rgb(255, 255, 255); opacity: 0.3; transform-origin: 260.943px 181.47px;" class="animable"></path></g><path d="M267.89,142.56c-24.33,2.65-55,2.39-86.8-7.69C215.53,109.22,259.06,114.86,267.89,142.56Z" style="fill: rgb(64, 123, 255); transform-origin: 224.49px 131.192px;" id="el7rxsnascly2" class="animable"></path><g id="elqym48qqvmbh"><path d="M267.89,142.56c-24.33,2.65-55,2.39-86.8-7.69C215.53,109.22,259.06,114.86,267.89,142.56Z" style="fill: rgb(255, 255, 255); opacity: 0.3; transform-origin: 224.49px 131.192px;" class="animable"></path></g><g id="ely8ybc7jr7q"><g style="opacity: 0.3; transform-origin: 278.66px 162.475px;" class="animable"><path d="M286,177.41c-3.69-11.78-5.47-17.31-14.68-29.87.57.57,3.12,7.82,3.55,10.1-.09.11,6.59,12.53,8,14.76S286,177.41,286,177.41Z" id="el48lipxy1it5" class="animable" style="transform-origin: 278.66px 162.475px;"></path></g></g><path d="M267.89,142.56c11,25.68,28.53,56,56.35,81.93C330.41,175.88,300.36,135.79,267.89,142.56Z" style="fill: rgb(64, 123, 255); transform-origin: 296.47px 183.151px;" id="el35k1sara6a4" class="animable"></path><g id="elbrgu9loil8h"><path d="M267.89,142.56c11,25.68,28.53,56,56.35,81.93C330.41,175.88,300.36,135.79,267.89,142.56Z" style="fill: rgb(255, 255, 255); opacity: 0.3; transform-origin: 296.47px 183.151px;" class="animable"></path></g><g id="elvo0ab6tovof"><path d="M294.14,147.22s-14.76-7.82-24.57-4.93c0,0,3.79-2.8,12.28-1.49C287.38,141.65,294.14,147.22,294.14,147.22Z" style="opacity: 0.3; transform-origin: 281.855px 143.836px;" class="animable"></path></g><g id="elyilolpwl7u"><g style="opacity: 0.3; transform-origin: 257.715px 130.03px;" class="animable"><path d="M259.33,128.53c-1.91-2.47-4.21-5.33-7.33-5.47l1.19,1.6A35.72,35.72,0,0,1,263.43,137,26,26,0,0,0,259.33,128.53Z" id="eli0hjttoldb" class="animable" style="transform-origin: 257.715px 130.03px;"></path></g></g><g id="elqjni28wx0hk"><g style="opacity: 0.3; transform-origin: 241.49px 142.331px;" class="animable"><path d="M230.65,143.84l13,.14a73.42,73.42,0,0,0,8.68-2.51C246.36,138.78,230.65,143.84,230.65,143.84Z" id="elkvs00ylp5f" class="animable" style="transform-origin: 241.49px 142.331px;"></path></g></g><g id="eljt4hbm9pye"><path d="M252.58,166.43l10.26-14s-6.8,14-12,18.3Z" style="opacity: 0.3; transform-origin: 256.84px 161.58px;" class="animable"></path></g><path d="M267.89,142.56c-7,17.48-33.63,52.34-68.73,50.53,1.67-12.81,8.39-24.17,17.54-33,2.18,3.45,5.63,7.4,10.35,8.15a32.82,32.82,0,0,1-4.72-13C236.43,144.33,254.2,139,267.89,142.56Z" style="fill: rgb(64, 123, 255); transform-origin: 233.525px 167.31px;" id="el66wwvq3kwlu" class="animable"></path><g id="el4hzabj82lp9"><path d="M267.89,142.56c-7,17.48-33.63,52.34-68.73,50.53,1.67-12.81,8.39-24.17,17.54-33,2.18,3.45,5.63,7.4,10.35,8.15a32.82,32.82,0,0,1-4.72-13C236.43,144.33,254.2,139,267.89,142.56Z" style="fill: rgb(255, 255, 255); opacity: 0.3; transform-origin: 233.525px 167.31px;" class="animable"></path></g></g><g id="freepik--Birds--inject-39" class="animable" style="transform-origin: 590.075px 136.144px;"><path d="M604.52,116.45s.55-7.85,2-9.07S617,103.17,617,103.17s-3.55,12.1-5.7,13.5S604.52,116.45,604.52,116.45Z" style="fill: rgb(64, 123, 255); transform-origin: 610.76px 110.205px;" id="eluq6ibghtpmb" class="animable"></path><g id="el6rncxugs1xt"><path d="M617,103.17h0c-.11.37-3.59,12.13-5.7,13.5a6.74,6.74,0,0,1-4.42.37,15.59,15.59,0,0,1-2.33-.59s.56-7.86,2-9.07,9.6-3.94,10.38-4.19h0Z" style="fill: rgb(255, 255, 255); opacity: 0.6; transform-origin: 610.775px 110.211px;" class="animable"></path></g><path d="M600,111.74c2,0,6.66,2.79,8.19,2.93s9.11-6.44,10.74-7.53,15.92-3.5,15.92-3.5-9.48,12.22-15.92,12.58c0,0,4.76,1.68,6.15,1.23,4.41-1.15,5.26-1.61,9.77-1.56l-5.18,3.53,7.75,1.19a31.25,31.25,0,0,1-10.86.51,46,46,0,0,1-8.51,3,11.42,11.42,0,0,1-11.61-3c-2.78-2.84-12-6-12-6l3.13-1.4A2.77,2.77,0,0,1,600,111.74Z" style="fill: rgb(64, 123, 255); transform-origin: 615.93px 114.135px;" id="elaz8b1r2qdsl" class="animable"></path><g id="elktv3vp9nmb"><path d="M600,111.74c2,0,6.66,2.79,8.19,2.93s9.11-6.44,10.74-7.53,15.92-3.5,15.92-3.5-9.48,12.22-15.92,12.58c0,0,4.76,1.68,6.15,1.23,4.41-1.15,5.26-1.61,9.77-1.56l-5.18,3.53,7.75,1.19a31.25,31.25,0,0,1-10.86.51,46,46,0,0,1-8.51,3,11.42,11.42,0,0,1-11.61-3c-2.78-2.84-12-6-12-6l3.13-1.4A2.77,2.77,0,0,1,600,111.74Z" style="fill: rgb(255, 255, 255); opacity: 0.8; transform-origin: 615.93px 114.135px;" class="animable"></path></g><polygon points="597.5 113.69 598.39 114.5 597.86 116.45 594.43 115.04 597.5 113.69" style="fill: rgb(38, 50, 56); transform-origin: 596.41px 115.07px;" id="el4cnjjf4quyk" class="animable"></polygon><path d="M601.36,114.55a.77.77,0,1,1-.75-.94A.86.86,0,0,1,601.36,114.55Z" style="fill: rgb(38, 50, 56); transform-origin: 600.602px 114.38px;" id="el1p3eeq0ikrl" class="animable"></path><path d="M551.32,159.76c1.47-1.24,7.56,7.53,10.44,8.62a7.72,7.72,0,0,1-6.33.11C552.26,167,549.76,161.05,551.32,159.76Z" style="fill: rgb(64, 123, 255); transform-origin: 556.301px 164.378px;" id="elqsx26ljxzr" class="animable"></path><g id="elwm9a424qci"><path d="M561.76,168.38a7.8,7.8,0,0,1-6.33.13c-3.17-1.49-5.67-7.46-4.11-8.75.35-.31.95,0,1.72.56C555.5,162.24,559.57,167.54,561.76,168.38Z" style="fill: rgb(255, 255, 255); opacity: 0.6; transform-origin: 556.301px 164.378px;" class="animable"></path></g><path d="M546.52,158.07c1.49-.45,5.21.93,6.36.77s8.06-.79,8.06-.79c1.91-.29,3.28-.37,4.82-.73a36.58,36.58,0,0,1,9.52-3.24l-6.09,4.46,5.79-.45a23.49,23.49,0,0,1-7.94,2.44,38.68,38.68,0,0,1-5.93,3.88,7.84,7.84,0,0,1-8.87-.18c-2.36-1.69-9.47-2.49-9.47-2.49l2.15-1.68A2.42,2.42,0,0,1,546.52,158.07Z" style="fill: rgb(64, 123, 255); transform-origin: 559.025px 159.889px;" id="elolljaphjjc" class="animable"></path><g id="eldc5c9ji8kh7"><path d="M546.52,158.07c1.49-.45,5.21.93,6.36.77s8.06-.79,8.06-.79c1.91-.29,3.28-.37,4.82-.73a36.58,36.58,0,0,1,9.52-3.24l-6.09,4.46,5.79-.45a23.49,23.49,0,0,1-7.94,2.44,38.68,38.68,0,0,1-5.93,3.88,7.84,7.84,0,0,1-8.87-.18c-2.36-1.69-9.47-2.49-9.47-2.49l2.15-1.68A2.42,2.42,0,0,1,546.52,158.07Z" style="fill: rgb(255, 255, 255); opacity: 0.8; transform-origin: 559.025px 159.889px;" class="animable"></path></g><polygon points="544.88 160.06 545.62 160.51 545.44 162.13 542.73 161.74 544.88 160.06" style="fill: rgb(38, 50, 56); transform-origin: 544.175px 161.095px;" id="elpngki3z945e" class="animable"></polygon><g id="el5q2ss2javbo"><path d="M566.81,160.77a40.65,40.65,0,0,1-4.47,3c-.37.23-.76.45-1.17.68-1.44.83-1.7,1.16-3.26,1.16a9.61,9.61,0,0,1-3.35-3.83,4.59,4.59,0,0,1,2.58-2.72C558.53,158.36,563.52,159.72,566.81,160.77Z" style="isolation: isolate; opacity: 0.3; transform-origin: 560.685px 162.239px;" class="animable"></path></g><path d="M554.56,158.91c2.68-1.9,18.19,6.38,24.56,6.76a27.71,27.71,0,0,1-13.21,2.1C558.75,167,551.69,160.91,554.56,158.91Z" style="fill: rgb(64, 123, 255); transform-origin: 566.512px 163.25px;" id="el3cnauzc2k5p" class="animable"></path><ellipse cx="546.91" cy="160.28" rx="0.59" ry="0.74" style="fill: rgb(38, 50, 56); transform-origin: 546.91px 160.28px;" id="elca2b9c01zqn" class="animable"></ellipse><g id="elhn35rvfv7rb"><path d="M554.56,158.91c2.68-1.9,18.19,6.38,24.56,6.76a27.71,27.71,0,0,1-13.21,2.1C558.75,167,551.69,160.91,554.56,158.91Z" style="fill: rgb(255, 255, 255); opacity: 0.8; transform-origin: 566.512px 163.25px;" class="animable"></path></g></g><g id="freepik--Plants--inject-39" class="animable" style="transform-origin: 374.925px 368.527px;"><path d="M360.71,377.86c-5.06-8-16.58-11.18-25-6.84a32.55,32.55,0,0,0-59.07-1.69c-13.19.11-26,7.92-29.71,16.4l130.47-.13C375.3,378.85,366.9,375.17,360.71,377.86Z" style="fill: rgb(38, 50, 56); transform-origin: 312.165px 368.502px;" id="elly3hndqen6" class="animable"></path><path d="M272.44,358.56A15.58,15.58,0,0,0,266.5,356a.79.79,0,0,0-1,.88A12,12,0,0,0,267.2,362a9.62,9.62,0,0,0,7.52,3.4C275.72,363,274.45,360.17,272.44,358.56Z" style="fill: rgb(38, 50, 56); transform-origin: 270.28px 360.685px;" id="el87bw2auxzjf" class="animable"></path><path d="M279.14,355.57a10.26,10.26,0,0,0-2.2-3.6.51.51,0,0,0-.85.11,7.77,7.77,0,0,0-1,3.37,6.26,6.26,0,0,0,2.75,4.6A4,4,0,0,0,279.14,355.57Z" style="fill: rgb(38, 50, 56); transform-origin: 277.23px 355.92px;" id="elgfnrt7e5s5" class="animable"></path><path d="M599.05,376.7a30.27,30.27,0,0,0,.24-16.35,53,53,0,0,1-9.39,15.27,147.22,147.22,0,0,0-4-21.55,52,52,0,0,0-3.49,23.05,111.49,111.49,0,0,0-14.2-11.83,26,26,0,0,0,13.25,20.45l14.1,0a18.82,18.82,0,0,0,13.51-18A20.78,20.78,0,0,1,599.05,376.7Z" style="fill: rgb(38, 50, 56); transform-origin: 588.64px 369.905px;" id="elvdtsm4xlgg" class="animable"></path><path d="M191.78,376.71a30.33,30.33,0,0,0,.23-16.34,53.09,53.09,0,0,1-9.38,15.26,147.11,147.11,0,0,0-4-21.54,51.94,51.94,0,0,0-3.49,23A110.8,110.8,0,0,0,161,365.3a26,26,0,0,0,13.25,20.45l14.1,0a18.8,18.8,0,0,0,13.51-18A20.79,20.79,0,0,1,191.78,376.71Z" style="fill: rgb(38, 50, 56); transform-origin: 181.43px 369.92px;" id="el76kpopl0yqt" class="animable"></path><path d="M154.52,381.74a13.57,13.57,0,0,0,.11-7.29,23.79,23.79,0,0,1-4.19,6.81,65.27,65.27,0,0,0-1.77-9.61,23.13,23.13,0,0,0-1.56,10.28,49.91,49.91,0,0,0-6.33-5.28,11.62,11.62,0,0,0,5.91,9.13H153a8.39,8.39,0,0,0,6-8A9.26,9.26,0,0,1,154.52,381.74Z" style="fill: rgb(38, 50, 56); transform-origin: 149.89px 378.715px;" id="el2cgt2c60139" class="animable"></path></g><defs>     <filter id="active" height="200%">         <feMorphology in="SourceAlpha" result="DILATED" operator="dilate" radius="2"></feMorphology>                <feFlood flood-color="#32DFEC" flood-opacity="1" result="PINK"></feFlood>        <feComposite in="PINK" in2="DILATED" operator="in" result="OUTLINE"></feComposite>        <feMerge>            <feMergeNode in="OUTLINE"></feMergeNode>            <feMergeNode in="SourceGraphic"></feMergeNode>        </feMerge>    </filter>    <filter id="hover" height="200%">        <feMorphology in="SourceAlpha" result="DILATED" operator="dilate" radius="2"></feMorphology>                <feFlood flood-color="#ff0000" flood-opacity="0.5" result="PINK"></feFlood>        <feComposite in="PINK" in2="DILATED" operator="in" result="OUTLINE"></feComposite>        <feMerge>            <feMergeNode in="OUTLINE"></feMergeNode>            <feMergeNode in="SourceGraphic"></feMergeNode>        </feMerge>            <feColorMatrix type="matrix" values="0   0   0   0   0                0   1   0   0   0                0   0   0   0   0                0   0   0   1   0 "></feColorMatrix>    </filter></defs></svg>